STARTFONT 2.1
COMMENT $Xorg: $
COMMENT ISO10646-1 extension by Markus Kuhn <mkuhn@acm.org>, 2001-03-20
COMMENT  (c) Copyright Bigelow & Holmes 1986, 1985. Lucida is a registered
COMMENT  trademark of Bigelow & Holmes. See LEGAL NOTICE file for terms 
COMMENT  of the license. 
FONT -B&H-LucidaBright-Medium-I-Normal--19-190-75-75-P-109-ISO10646-1
SIZE 19 72 72
FONTBOUNDINGBOX 31 31 -10 -9
STARTPROPERTIES 22
COMMENT Begin LogicalFontDescription
FONTNAME_REGISTRY ""
FOUNDRY "B&H"
FAMILY_NAME "LucidaBright"
WEIGHT_NAME "Medium"
SLANT "I"
SETWIDTH_NAME "Normal"
ADD_STYLE_NAME ""
PIXEL_SIZE 19
POINT_SIZE 190
RESOLUTION_X 100
RESOLUTION_Y 100
SPACING "P"
AVERAGE_WIDTH 109
CHARSET_REGISTRY "ISO10646"
CHARSET_ENCODING "1"
COMMENT END LogicalFontDescription
COPYRIGHT "Copyright Bigelow & Holmes 1986, 1985."
FONT_ASCENT 17
FONT_DESCENT 5
DEFAULT_CHAR 0
FACE_NAME "Lucida Bright Italic"
X_HEIGHT 10
CAP_HEIGHT 14
ENDPROPERTIES
CHARS 723
STARTCHAR char0
ENCODING 0
SWIDTH 776 0
DWIDTH 15 0
BBX 17 13 0 0
BITMAP
AAAA80
000000
800080
000000
800080
000000
800080
000000
800080
000000
800080
000000
AAAA80
ENDCHAR
STARTCHAR space
ENCODING 32
SWIDTH 333 0
DWIDTH 5 0
BBX 1 1 0 0
BITMAP
00
ENDCHAR
STARTCHAR exclam
ENCODING 33
SWIDTH 265 0
DWIDTH 5 0
BBX 5 14 1 0
BITMAP
18
18
10
30
30
30
20
20
20
20
40
00
00
C0
ENDCHAR
STARTCHAR quotedbl
ENCODING 34
SWIDTH 377 0
DWIDTH 7 0
BBX 5 4 4 10
BITMAP
D8
D8
90
90
ENDCHAR
STARTCHAR numbersign
ENCODING 35
SWIDTH 608 0
DWIDTH 12 0
BBX 12 14 1 0
BITMAP
0130
0220
0240
0440
7FF0
0880
0900
1100
FFE0
2200
2600
4400
4400
C800
ENDCHAR
STARTCHAR dollar
ENCODING 36
SWIDTH 608 0
DWIDTH 12 0
BBX 9 17 3 -2
BITMAP
0200
1F80
3480
6480
6400
6400
3800
1800
0E00
1700
1300
1300
9200
D600
F800
2000
2000
ENDCHAR
STARTCHAR percent
ENCODING 37
SWIDTH 759 0
DWIDTH 14 0
BBX 13 14 2 0
BITMAP
1C08
2410
6620
4440
4480
6D00
3B00
02E0
0590
0910
1110
2110
4120
C1C0
ENDCHAR
STARTCHAR ampersand
ENCODING 38
SWIDTH 727 0
DWIDTH 14 0
BBX 13 14 2 0
BITMAP
0380
04C0
0C40
0C40
0CC0
0F00
1400
6678
C630
C320
C360
C1C0
61C0
3EF0
ENDCHAR
STARTCHAR quotesingle
ENCODING 39
SWIDTH 231 0
DWIDTH 4 0
BBX 2 5 3 9
BITMAP
C0
C0
C0
40
40
ENDCHAR
STARTCHAR parenleft
ENCODING 40
SWIDTH 310 0
DWIDTH 6 0
BBX 7 18 2 -4
BITMAP
02
0C
10
10
20
60
60
40
C0
C0
C0
C0
C0
C0
C0
40
40
20
ENDCHAR
STARTCHAR parenright
ENCODING 41
SWIDTH 310 0
DWIDTH 6 0
BBX 6 18 0 -4
BITMAP
10
08
08
04
04
04
04
04
0C
0C
0C
08
18
10
30
20
40
80
ENDCHAR
STARTCHAR asterisk
ENCODING 42
SWIDTH 458 0
DWIDTH 9 0
BBX 7 7 3 7
BITMAP
18
10
D6
2C
30
C8
48
ENDCHAR
STARTCHAR plus
ENCODING 43
SWIDTH 608 0
DWIDTH 12 0
BBX 11 12 1 0
BITMAP
0200
0200
0200
0200
0400
0400
FFE0
0400
0400
0C00
0800
0800
ENDCHAR
STARTCHAR comma
ENCODING 44
SWIDTH 265 0
DWIDTH 5 0
BBX 3 7 1 -4
BITMAP
60
60
60
60
40
40
80
ENDCHAR
STARTCHAR hyphen
ENCODING 45
SWIDTH 313 0
DWIDTH 6 0
BBX 5 1 2 6
BITMAP
F8
ENDCHAR
STARTCHAR period
ENCODING 46
SWIDTH 265 0
DWIDTH 5 0
BBX 3 2 1 0
BITMAP
E0
E0
ENDCHAR
STARTCHAR slash
ENCODING 47
SWIDTH 458 0
DWIDTH 9 0
BBX 12 18 0 -4
BITMAP
0010
0020
0040
0040
0080
0080
0100
0200
0200
0400
0400
0800
1000
1000
2000
2000
4000
8000
ENDCHAR
STARTCHAR zero
ENCODING 48
SWIDTH 608 0
DWIDTH 12 0
BBX 10 14 2 0
BITMAP
0F00
1980
30C0
60C0
60C0
40C0
C0C0
C0C0
C080
C180
C180
C300
6600
3C00
ENDCHAR
STARTCHAR one
ENCODING 49
SWIDTH 608 0
DWIDTH 12 0
BBX 7 14 2 0
BITMAP
1E
06
06
04
0C
0C
0C
0C
08
18
18
18
18
FE
ENDCHAR
STARTCHAR two
ENCODING 50
SWIDTH 608 0
DWIDTH 12 0
BBX 11 14 1 0
BITMAP
0F80
10E0
1060
0060
0060
00C0
0180
0300
0400
0800
3000
6000
4000
FF80
ENDCHAR
STARTCHAR three
ENCODING 51
SWIDTH 608 0
DWIDTH 12 0
BBX 10 14 2 0
BITMAP
1F00
1180
30C0
00C0
0180
0300
1E00
0300
0180
0180
0180
8300
8600
FC00
ENDCHAR
STARTCHAR four
ENCODING 52
SWIDTH 608 0
DWIDTH 12 0
BBX 10 14 1 0
BITMAP
00C0
0180
0380
0580
0980
1180
1180
2100
4100
FFC0
0300
0200
0600
0F80
ENDCHAR
STARTCHAR five
ENCODING 53
SWIDTH 608 0
DWIDTH 12 0
BBX 10 14 2 0
BITMAP
1FC0
2000
2000
2000
2000
3C00
0700
0300
0180
0180
0100
8300
8600
FC00
ENDCHAR
STARTCHAR six
ENCODING 54
SWIDTH 608 0
DWIDTH 12 0
BBX 10 14 2 0
BITMAP
07C0
1840
3040
3000
6000
7F00
E180
C180
C180
C180
C180
C100
6200
3C00
ENDCHAR
STARTCHAR seven
ENCODING 55
SWIDTH 608 0
DWIDTH 12 0
BBX 11 14 3 0
BITMAP
3FE0
0040
0080
0080
0100
0200
0400
0800
1800
3000
2000
6000
C000
C000
ENDCHAR
STARTCHAR eight
ENCODING 56
SWIDTH 608 0
DWIDTH 12 0
BBX 9 14 3 0
BITMAP
0F00
1180
3080
3080
3180
3B00
1C00
2700
4300
C100
C180
C300
E600
3C00
ENDCHAR
STARTCHAR nine
ENCODING 57
SWIDTH 608 0
DWIDTH 12 0
BBX 10 14 2 0
BITMAP
0F00
1980
30C0
60C0
60C0
60C0
60C0
71C0
3FC0
0180
0180
8300
8600
7800
ENDCHAR
STARTCHAR colon
ENCODING 58
SWIDTH 265 0
DWIDTH 5 0
BBX 4 10 2 0
BITMAP
30
70
00
00
00
00
00
00
E0
C0
ENDCHAR
STARTCHAR semicolon
ENCODING 59
SWIDTH 265 0
DWIDTH 5 0
BBX 5 14 1 -4
BITMAP
18
38
00
00
00
00
00
00
60
60
60
60
40
C0
ENDCHAR
STARTCHAR less
ENCODING 60
SWIDTH 608 0
DWIDTH 12 0
BBX 12 12 1 0
BITMAP
0010
0060
0180
0600
1800
E000
6000
1800
0C00
0300
01C0
0040
ENDCHAR
STARTCHAR equal
ENCODING 61
SWIDTH 608 0
DWIDTH 12 0
BBX 12 5 1 3
BITMAP
7FF0
0000
0000
0000
FFE0
ENDCHAR
STARTCHAR greater
ENCODING 62
SWIDTH 608 0
DWIDTH 12 0
BBX 12 12 0 0
BITMAP
2000
3800
0C00
0300
0180
0060
0070
0180
0600
1800
6000
8000
ENDCHAR
STARTCHAR question
ENCODING 63
SWIDTH 471 0
DWIDTH 9 0
BBX 7 14 3 0
BITMAP
7C
C6
82
02
06
0C
18
30
60
60
00
00
00
C0
ENDCHAR
STARTCHAR at
ENCODING 64
SWIDTH 861 0
DWIDTH 16 0
BBX 14 14 2 0
BITMAP
03E0
0C18
1004
23E4
4464
8444
8844
88C4
8944
8948
8E70
4000
3080
1F00
ENDCHAR
STARTCHAR A
ENCODING 65
SWIDTH 747 0
DWIDTH 14 0
BBX 14 14 0 0
BITMAP
0040
00C0
00E0
0160
0160
0260
0460
0430
0830
1FF0
2030
2030
6038
F07C
ENDCHAR
STARTCHAR B
ENCODING 66
SWIDTH 606 0
DWIDTH 12 0
BBX 12 14 0 0
BITMAP
1FE0
0C30
0C30
0C30
0C20
08E0
1F80
18C0
1860
1860
3060
3060
30C0
FF80
ENDCHAR
STARTCHAR C
ENCODING 67
SWIDTH 714 0
DWIDTH 14 0
BBX 13 14 2 0
BITMAP
03F8
0C18
1818
3018
6000
6000
C000
C000
C000
C000
C000
6000
7060
1F80
ENDCHAR
STARTCHAR D
ENCODING 68
SWIDTH 770 0
DWIDTH 15 0
BBX 15 14 0 0
BITMAP
1FF0
0C1C
0C0C
0C06
0C06
1806
1806
1806
180C
180C
3018
3038
3060
FF80
ENDCHAR
STARTCHAR E
ENCODING 69
SWIDTH 569 0
DWIDTH 11 0
BBX 12 14 1 0
BITMAP
1FF0
0C10
0C30
0C00
0800
1840
1FC0
1880
1800
1000
3000
3040
3040
FFC0
ENDCHAR
STARTCHAR F
ENCODING 70
SWIDTH 551 0
DWIDTH 10 0
BBX 12 14 1 0
BITMAP
1FF0
0C10
0C30
0C00
0800
1840
1F80
1880
1800
1000
3000
3000
3000
FC00
ENDCHAR
STARTCHAR G
ENCODING 71
SWIDTH 756 0
DWIDTH 14 0
BBX 13 14 2 0
BITMAP
03F8
0C18
1810
3000
6000
6000
C000
C000
C1F8
C060
C060
6060
70C0
1F80
ENDCHAR
STARTCHAR H
ENCODING 72
SWIDTH 776 0
DWIDTH 15 0
BBX 17 14 0 0
BITMAP
1F1F80
0E0600
0C0600
0C0600
0C0C00
180C00
1FFC00
180C00
180C00
181800
301800
301800
303800
FC7C00
ENDCHAR
STARTCHAR I
ENCODING 73
SWIDTH 325 0
DWIDTH 6 0
BBX 8 14 1 0
BITMAP
1F
0C
0C
0C
08
18
18
18
18
10
30
30
30
F8
ENDCHAR
STARTCHAR J
ENCODING 74
SWIDTH 422 0
DWIDTH 8 0
BBX 11 18 0 -4
BITMAP
07E0
0180
0180
0180
0300
0300
0300
0300
0300
0300
0600
0600
0600
0600
0400
CC00
8800
F000
ENDCHAR
STARTCHAR K
ENCODING 75
SWIDTH 698 0
DWIDTH 13 0
BBX 14 14 1 0
BITMAP
1F3C
0C18
0C20
0C40
0980
1B00
1E00
1F00
1B00
3180
31C0
30C0
3060
F9F0
ENDCHAR
STARTCHAR L
ENCODING 76
SWIDTH 572 0
DWIDTH 11 0
BBX 11 14 0 0
BITMAP
1F00
0E00
0C00
0C00
0C00
0C00
1800
1800
1800
1800
3000
3020
3060
FFE0
ENDCHAR
STARTCHAR M
ENCODING 77
SWIDTH 865 0
DWIDTH 16 0
BBX 18 14 1 0
BITMAP
1C03C0
0E0700
0E0700
0E0B00
0E0A00
121600
133600
132600
134600
114400
218C00
210C00
200C00
F03E00
ENDCHAR
STARTCHAR N
ENCODING 78
SWIDTH 762 0
DWIDTH 14 0
BBX 16 14 0 0
BITMAP
1C0F
0C02
0E04
0E04
1304
1384
1184
10C8
10C8
1068
2068
2038
2030
F010
ENDCHAR
STARTCHAR O
ENCODING 79
SWIDTH 783 0
DWIDTH 15 0
BBX 13 14 2 0
BITMAP
03E0
0C30
1818
3018
6018
6018
C018
C018
C018
C030
C030
6060
71C0
1F00
ENDCHAR
STARTCHAR P
ENCODING 80
SWIDTH 579 0
DWIDTH 11 0
BBX 12 14 1 0
BITMAP
1FE0
0C30
0C30
0C30
0830
1860
18C0
1F80
1800
3000
3000
3000
3000
FC00
ENDCHAR
STARTCHAR Q
ENCODING 81
SWIDTH 788 0
DWIDTH 15 0
BBX 15 18 2 -4
BITMAP
03E0
0C30
1818
3018
6018
6018
C018
C018
C018
C030
C030
6060
71E0
1FC0
0100
0080
00C0
003E
ENDCHAR
STARTCHAR R
ENCODING 82
SWIDTH 686 0
DWIDTH 13 0
BBX 13 14 0 0
BITMAP
1FF0
0C30
0C38
0C30
0C30
0C20
18C0
1F80
1980
18C0
30C0
3060
3060
FC38
ENDCHAR
STARTCHAR S
ENCODING 83
SWIDTH 549 0
DWIDTH 10 0
BBX 11 14 1 0
BITMAP
0FC0
1860
1040
3040
3000
1800
0E00
0700
0380
0180
C180
8180
C300
7E00
ENDCHAR
STARTCHAR T
ENCODING 84
SWIDTH 663 0
DWIDTH 13 0
BBX 12 14 3 0
BITMAP
FFF0
8610
8610
0600
0C00
0C00
0C00
0C00
0C00
1800
1800
1800
1800
7E00
ENDCHAR
STARTCHAR U
ENCODING 85
SWIDTH 727 0
DWIDTH 14 0
BBX 13 14 3 0
BITMAP
FC78
7020
6020
6020
6020
6040
6040
C040
C040
C040
C080
C080
6100
3E00
ENDCHAR
STARTCHAR V
ENCODING 86
SWIDTH 656 0
DWIDTH 12 0
BBX 14 14 2 0
BITMAP
F83C
6008
6010
3020
3020
3040
30C0
3080
1900
1B00
1A00
1C00
1C00
0800
ENDCHAR
STARTCHAR W
ENCODING 87
SWIDTH 878 0
DWIDTH 17 0
BBX 18 14 2 0
BITMAP
F843C0
60C180
60C100
61C200
61C200
22C400
22C400
244800
344800
387000
387000
306000
306000
204000
ENDCHAR
STARTCHAR X
ENCODING 88
SWIDTH 624 0
DWIDTH 12 0
BBX 15 14 0 0
BITMAP
1F1E
0E0C
0618
0630
0360
03C0
0180
0380
02C0
04C0
0860
1060
2070
F0F8
ENDCHAR
STARTCHAR Y
ENCODING 89
SWIDTH 663 0
DWIDTH 13 0
BBX 13 14 2 0
BITMAP
F878
7030
3060
30C0
1880
1900
1E00
0C00
0C00
0C00
1800
1800
1800
7E00
ENDCHAR
STARTCHAR Z
ENCODING 90
SWIDTH 633 0
DWIDTH 12 0
BBX 12 14 1 0
BITMAP
1FF0
1060
30E0
00C0
0180
0300
0600
0600
0C00
1800
3000
7040
6040
FFC0
ENDCHAR
STARTCHAR bracketleft
ENCODING 91
SWIDTH 310 0
DWIDTH 6 0
BBX 7 18 1 -4
BITMAP
1E
18
18
10
10
30
30
30
20
20
60
60
60
40
40
C0
C0
F0
ENDCHAR
STARTCHAR backslash
ENCODING 92
SWIDTH 458 0
DWIDTH 9 0
BBX 5 18 3 -4
BITMAP
80
80
40
40
40
40
40
20
20
20
20
10
10
10
10
10
08
08
ENDCHAR
STARTCHAR bracketright
ENCODING 93
SWIDTH 310 0
DWIDTH 6 0
BBX 7 18 0 -4
BITMAP
1E
06
06
04
04
0C
0C
0C
08
08
18
18
18
10
10
30
30
F0
ENDCHAR
STARTCHAR asciicircum
ENCODING 94
SWIDTH 608 0
DWIDTH 12 0
BBX 11 12 1 2
BITMAP
0100
0100
0300
0780
0480
0880
0880
1040
2040
2040
4040
C020
ENDCHAR
STARTCHAR underscore
ENCODING 95
SWIDTH 500 0
DWIDTH 9 0
BBX 8 1 1 -2
BITMAP
FF
ENDCHAR
STARTCHAR grave
ENCODING 96
SWIDTH 560 0
DWIDTH 11 0
BBX 3 3 6 11
BITMAP
C0
40
20
ENDCHAR
STARTCHAR a
ENCODING 97
SWIDTH 608 0
DWIDTH 12 0
BBX 10 10 2 0
BITMAP
0FC0
10C0
20C0
6080
6180
C180
C380
C580
C900
73C0
ENDCHAR
STARTCHAR b
ENCODING 98
SWIDTH 596 0
DWIDTH 11 0
BBX 10 14 2 0
BITMAP
7800
1000
3000
3000
3380
34C0
28C0
70C0
70C0
6080
4180
4100
C200
FC00
ENDCHAR
STARTCHAR c
ENCODING 99
SWIDTH 487 0
DWIDTH 9 0
BBX 9 10 2 0
BITMAP
0F80
1100
2100
4000
C000
C000
C000
C000
C200
7C00
ENDCHAR
STARTCHAR d
ENCODING 100
SWIDTH 608 0
DWIDTH 12 0
BBX 11 14 2 0
BITMAP
01E0
0060
0040
00C0
0FC0
10C0
20C0
6080
6180
C180
C380
C580
C900
73C0
ENDCHAR
STARTCHAR e
ENCODING 101
SWIDTH 518 0
DWIDTH 10 0
BBX 8 10 2 0
BITMAP
0F
33
63
43
C6
F8
C0
C1
E3
7C
ENDCHAR
STARTCHAR f
ENCODING 102
SWIDTH 380 0
DWIDTH 7 0
BBX 9 19 2 -4
BITMAP
0780
0880
0880
1800
1800
7E00
3000
3000
3000
3000
2000
6000
6000
6000
6000
4000
C000
C000
C000
ENDCHAR
STARTCHAR g
ENCODING 103
SWIDTH 602 0
DWIDTH 11 0
BBX 11 14 1 -4
BITMAP
07E0
0860
1060
3040
20C0
60C0
61C0
62C0
6580
3980
0180
8100
C200
7C00
ENDCHAR
STARTCHAR h
ENCODING 104
SWIDTH 631 0
DWIDTH 12 0
BBX 10 14 2 0
BITMAP
7800
1000
3000
3000
3380
24C0
28C0
7080
6180
6180
4180
4180
C180
C3C0
ENDCHAR
STARTCHAR i
ENCODING 105
SWIDTH 289 0
DWIDTH 5 0
BBX 5 14 2 0
BITMAP
18
00
00
00
F0
30
30
20
60
60
60
40
C0
F0
ENDCHAR
STARTCHAR j
ENCODING 106
SWIDTH 343 0
DWIDTH 7 0
BBX 9 18 0 -4
BITMAP
0180
0000
0000
0000
0700
0300
0300
0300
0200
0200
0600
0600
0600
0400
0C00
8C00
8800
F000
ENDCHAR
STARTCHAR k
ENCODING 107
SWIDTH 560 0
DWIDTH 11 0
BBX 10 14 1 0
BITMAP
7800
1800
1000
3000
30C0
3180
3300
6400
7800
6C00
6C00
4600
C300
C3C0
ENDCHAR
STARTCHAR l
ENCODING 108
SWIDTH 289 0
DWIDTH 5 0
BBX 5 14 2 0
BITMAP
78
18
10
30
30
30
30
60
60
60
60
40
C0
F0
ENDCHAR
STARTCHAR m
ENCODING 109
SWIDTH 944 0
DWIDTH 18 0
BBX 16 10 2 0
BITMAP
F38E
34D3
68A3
71E2
71C6
6186
6186
C186
C306
C30F
ENDCHAR
STARTCHAR n
ENCODING 110
SWIDTH 631 0
DWIDTH 12 0
BBX 10 10 2 0
BITMAP
F380
24C0
68C0
7080
6180
6180
4180
C180
C180
C3C0
ENDCHAR
STARTCHAR o
ENCODING 111
SWIDTH 560 0
DWIDTH 11 0
BBX 9 10 2 0
BITMAP
0F00
3180
6180
6180
C180
C180
C180
C300
E600
7800
ENDCHAR
STARTCHAR p
ENCODING 112
SWIDTH 608 0
DWIDTH 12 0
BBX 11 14 1 -4
BITMAP
79C0
3260
3460
3860
3060
30C0
60C0
6080
6100
7E00
4000
C000
C000
C000
ENDCHAR
STARTCHAR q
ENCODING 113
SWIDTH 599 0
DWIDTH 11 0
BBX 10 14 2 -4
BITMAP
0FC0
10C0
20C0
6080
6180
C180
C380
C580
C900
7300
0300
0300
0300
0600
ENDCHAR
STARTCHAR r
ENCODING 114
SWIDTH 470 0
DWIDTH 9 0
BBX 9 10 2 0
BITMAP
F180
3700
3C00
7800
7000
6000
6000
4000
C000
C000
ENDCHAR
STARTCHAR s
ENCODING 115
SWIDTH 440 0
DWIDTH 8 0
BBX 9 10 1 0
BITMAP
0F00
3180
3100
3800
1C00
0E00
8600
8300
C600
7C00
ENDCHAR
STARTCHAR t
ENCODING 116
SWIDTH 355 0
DWIDTH 7 0
BBX 6 13 2 0
BITMAP
30
30
30
FC
60
60
60
60
40
C0
C0
C0
70
ENDCHAR
STARTCHAR u
ENCODING 117
SWIDTH 630 0
DWIDTH 12 0
BBX 10 10 2 0
BITMAP
F3C0
60C0
60C0
6080
6180
6180
4380
C580
C900
73C0
ENDCHAR
STARTCHAR v
ENCODING 118
SWIDTH 558 0
DWIDTH 11 0
BBX 11 10 1 0
BITMAP
F0E0
3060
3060
18C0
1880
1900
1A00
1E00
1C00
1800
ENDCHAR
STARTCHAR w
ENCODING 119
SWIDTH 805 0
DWIDTH 15 0
BBX 15 10 1 0
BITMAP
E086
3186
3186
33C4
12C8
16D8
14D0
18E0
18C0
10C0
ENDCHAR
STARTCHAR x
ENCODING 120
SWIDTH 510 0
DWIDTH 10 0
BBX 10 10 1 0
BITMAP
70C0
38C0
1980
0F00
0C00
1E00
3600
6300
C300
C1C0
ENDCHAR
STARTCHAR y
ENCODING 121
SWIDTH 558 0
DWIDTH 11 0
BBX 12 14 0 -4
BITMAP
7870
1830
1820
0820
0C40
0C80
0D00
0D00
0E00
0400
0800
1000
3000
E000
ENDCHAR
STARTCHAR z
ENCODING 122
SWIDTH 536 0
DWIDTH 10 0
BBX 10 10 1 0
BITMAP
3FC0
2180
2300
0600
0C00
1C00
1800
3080
6180
FF80
ENDCHAR
STARTCHAR braceleft
ENCODING 123
SWIDTH 337 0
DWIDTH 6 0
BBX 7 18 2 -4
BITMAP
0E
18
10
10
10
10
10
30
20
C0
60
60
60
40
C0
C0
C0
60
ENDCHAR
STARTCHAR bar
ENCODING 124
SWIDTH 241 0
DWIDTH 5 0
BBX 5 18 1 -4
BITMAP
08
18
10
10
10
10
30
20
20
20
20
60
40
40
40
40
C0
80
ENDCHAR
STARTCHAR braceright
ENCODING 125
SWIDTH 337 0
DWIDTH 6 0
BBX 7 18 2 -4
BITMAP
18
04
04
0C
0C
08
08
08
0E
10
10
30
30
30
30
30
60
C0
ENDCHAR
STARTCHAR asciitilde
ENCODING 126
SWIDTH 608 0
DWIDTH 12 0
BBX 12 5 1 3
BITMAP
3810
4C10
8610
8320
81C0
ENDCHAR
STARTCHAR space
ENCODING 160
SWIDTH 333 0
DWIDTH 5 0
BBX 1 1 0 0
BITMAP
00
ENDCHAR
STARTCHAR exclamdown
ENCODING 161
SWIDTH 265 0
DWIDTH 5 0
BBX 5 14 1 -4
BITMAP
18
00
00
00
30
20
20
20
60
60
60
40
C0
C0
ENDCHAR
STARTCHAR cent
ENCODING 162
SWIDTH 608 0
DWIDTH 12 0
BBX 9 14 3 0
BITMAP
0200
0780
1D80
2500
6400
4400
C400
C800
C800
C800
E900
7E00
1000
1000
ENDCHAR
STARTCHAR sterling
ENCODING 163
SWIDTH 608 0
DWIDTH 12 0
BBX 11 14 2 0
BITMAP
01E0
0220
0420
0C00
0C00
0C00
1800
7F00
1800
1800
1000
3000
6000
FF00
ENDCHAR
STARTCHAR currency
ENCODING 164
SWIDTH 608 0
DWIDTH 12 0
BBX 13 12 1 1
BITMAP
2008
1710
18A0
1040
1040
2040
2040
2040
1080
31C0
6F40
8020
ENDCHAR
STARTCHAR yen
ENCODING 165
SWIDTH 608 0
DWIDTH 12 0
BBX 13 14 2 0
BITMAP
F878
7020
3040
1880
1900
0E00
7F80
0C00
0800
7F00
1800
1800
1800
7C00
ENDCHAR
STARTCHAR brokenbar
ENCODING 166
SWIDTH 241 0
DWIDTH 5 0
BBX 5 18 1 -4
BITMAP
08
18
10
10
10
10
30
20
00
00
20
60
40
40
40
40
C0
80
ENDCHAR
STARTCHAR section
ENCODING 167
SWIDTH 608 0
DWIDTH 12 0
BBX 10 18 2 -4
BITMAP
07C0
1840
3040
3000
3000
1C00
3F00
2380
6180
6080
3980
1F00
0700
0300
0100
8300
C700
7C00
ENDCHAR
STARTCHAR dieresis
ENCODING 168
SWIDTH 560 0
DWIDTH 11 0
BBX 6 1 5 13
BITMAP
CC
ENDCHAR
STARTCHAR copyright
ENCODING 169
SWIDTH 843 0
DWIDTH 16 0
BBX 15 14 2 0
BITMAP
0FC0
1830
2008
43E4
8424
8C22
8802
8802
8802
8C04
47C4
2008
1830
0FC0
ENDCHAR
STARTCHAR ordfeminine
ENCODING 170
SWIDTH 458 0
DWIDTH 8 0
BBX 7 8 2 6
BITMAP
1E
26
46
C6
CC
DC
D4
EE
ENDCHAR
STARTCHAR guillemotleft
ENCODING 171
SWIDTH 525 0
DWIDTH 10 0
BBX 9 9 1 0
BITMAP
0880
1100
2200
4C00
CC00
6400
2200
2200
1000
ENDCHAR
STARTCHAR logicalnot
ENCODING 172
SWIDTH 608 0
DWIDTH 12 0
BBX 11 5 2 3
BITMAP
FFE0
0020
0060
0040
0040
ENDCHAR
STARTCHAR hyphen
ENCODING 173
SWIDTH 313 0
DWIDTH 6 0
BBX 5 1 2 6
BITMAP
F8
ENDCHAR
STARTCHAR registered
ENCODING 174
SWIDTH 608 0
DWIDTH 12 0
BBX 8 9 4 5
BITMAP
3C
46
9E
95
99
99
A5
46
3C
ENDCHAR
STARTCHAR macron
ENCODING 175
SWIDTH 560 0
DWIDTH 11 0
BBX 5 1 6 13
BITMAP
F8
ENDCHAR
STARTCHAR degree
ENCODING 176
SWIDTH 277 0
DWIDTH 5 0
BBX 3 4 3 10
BITMAP
60
A0
A0
60
ENDCHAR
STARTCHAR plusminus
ENCODING 177
SWIDTH 608 0
DWIDTH 12 0
BBX 12 12 0 0
BITMAP
0100
0100
0100
0100
7FF0
0200
0200
0200
0200
0000
0000
FFE0
ENDCHAR
STARTCHAR twosuperior
ENCODING 178
SWIDTH 365 0
DWIDTH 7 0
BBX 6 9 -10 5
BITMAP
38
4C
04
04
18
20
40
40
F8
ENDCHAR
STARTCHAR threesuperior
ENCODING 179
SWIDTH 365 0
DWIDTH 7 0
BBX 6 9 -10 5
BITMAP
38
6C
04
08
30
18
08
98
F0
ENDCHAR
STARTCHAR acute
ENCODING 180
SWIDTH 560 0
DWIDTH 11 0
BBX 5 3 6 11
BITMAP
38
60
C0
ENDCHAR
STARTCHAR mu
ENCODING 181
SWIDTH 663 0
DWIDTH 13 0
BBX 11 14 2 -4
BITMAP
71E0
3060
3040
30C0
30C0
20C0
61C0
6280
6780
7DE0
4000
C000
C000
C000
ENDCHAR
STARTCHAR paragraph
ENCODING 182
SWIDTH 608 0
DWIDTH 12 0
BBX 8 18 3 -4
BITMAP
7F
79
F9
FA
FA
7A
72
12
14
14
14
24
24
24
24
24
28
28
ENDCHAR
STARTCHAR periodcentered
ENCODING 183
SWIDTH 608 0
DWIDTH 12 0
BBX 2 1 6 6
BITMAP
C0
ENDCHAR
STARTCHAR cedilla
ENCODING 184
SWIDTH 560 0
DWIDTH 11 0
BBX 3 4 3 -4
BITMAP
60
60
20
E0
ENDCHAR
STARTCHAR onesuperior
ENCODING 185
SWIDTH 365 0
DWIDTH 7 0
BBX 4 9 -10 5
BITMAP
70
10
10
20
20
20
20
60
F0
ENDCHAR
STARTCHAR ordmasculine
ENCODING 186
SWIDTH 458 0
DWIDTH 8 0
BBX 7 8 2 6
BITMAP
1C
26
42
C2
C2
C4
CC
70
ENDCHAR
STARTCHAR guillemotright
ENCODING 187
SWIDTH 525 0
DWIDTH 10 0
BBX 9 9 1 1
BITMAP
0400
2200
2200
1300
1980
1900
2200
4400
8800
ENDCHAR
STARTCHAR onequarter
ENCODING 188
SWIDTH 766 0
DWIDTH 15 0
BBX 15 14 3 0
BITMAP
7006
100C
1018
2030
2020
204C
2094
6128
F248
0488
0CFC
1808
3010
6038
ENDCHAR
STARTCHAR onehalf
ENCODING 189
SWIDTH 766 0
DWIDTH 15 0
BBX 15 14 3 0
BITMAP
7006
100C
1018
2030
2020
2078
20CC
6104
F204
0418
0C20
1840
3040
60F8
ENDCHAR
STARTCHAR threequarters
ENCODING 190
SWIDTH 766 0
DWIDTH 15 0
BBX 15 14 3 0
BITMAP
3806
6C0C
0418
0830
3020
184C
0894
9928
F248
0488
0CFC
1808
3010
6038
ENDCHAR
STARTCHAR questiondown
ENCODING 191
SWIDTH 471 0
DWIDTH 9 0
BBX 7 14 1 -4
BITMAP
06
00
00
00
06
04
08
10
60
40
C0
C2
E2
7C
ENDCHAR
STARTCHAR Agrave
ENCODING 192
SWIDTH 747 0
DWIDTH 14 0
BBX 14 18 0 0
BITMAP
00C0
0040
0020
0000
0040
00C0
00E0
0160
0160
0260
0460
0430
0830
1FF0
2030
2030
6038
F07C
ENDCHAR
STARTCHAR Aacute
ENCODING 193
SWIDTH 747 0
DWIDTH 14 0
BBX 14 18 0 0
BITMAP
001C
0030
0060
0000
0040
00C0
00E0
0160
0160
0260
0460
0430
0830
1FF0
2030
2030
6038
F07C
ENDCHAR
STARTCHAR Acircumflex
ENCODING 194
SWIDTH 747 0
DWIDTH 14 0
BBX 14 18 0 0
BITMAP
0070
00D0
0108
0000
0040
00C0
00E0
0160
0160
0260
0460
0430
0830
1FF0
2030
2030
6038
F07C
ENDCHAR
STARTCHAR Atilde
ENCODING 195
SWIDTH 747 0
DWIDTH 14 0
BBX 14 17 0 0
BITMAP
00C8
0130
0000
0040
00C0
00E0
0160
0160
0260
0460
0430
0830
1FF0
2030
2030
6038
F07C
ENDCHAR
STARTCHAR Adieresis
ENCODING 196
SWIDTH 747 0
DWIDTH 14 0
BBX 14 16 0 0
BITMAP
0198
0000
0040
00C0
00E0
0160
0160
0260
0460
0430
0830
1FF0
2030
2030
6038
F07C
ENDCHAR
STARTCHAR Aring
ENCODING 197
SWIDTH 747 0
DWIDTH 14 0
BBX 14 18 0 0
BITMAP
0070
0050
0070
0000
0040
00C0
00E0
0160
0160
0260
0460
0430
0830
1FF0
2030
2030
6038
F07C
ENDCHAR
STARTCHAR AE
ENCODING 198
SWIDTH 907 0
DWIDTH 17 0
BBX 19 14 0 0
BITMAP
001FE0
003820
005860
009800
00B000
013080
023F80
043080
043000
0FE000
106000
206080
406080
F1FF80
ENDCHAR
STARTCHAR Ccedilla
ENCODING 199
SWIDTH 714 0
DWIDTH 14 0
BBX 13 18 2 -4
BITMAP
03F8
0C18
1818
3018
6000
6000
C000
C000
C000
C000
C000
6000
7060
1F80
0800
0C00
0400
1C00
ENDCHAR
STARTCHAR Egrave
ENCODING 200
SWIDTH 569 0
DWIDTH 11 0
BBX 12 18 1 0
BITMAP
0300
0100
0080
0000
1FF0
0C10
0C30
0C00
0800
1840
1FC0
1880
1800
1000
3000
3040
3040
FFC0
ENDCHAR
STARTCHAR Eacute
ENCODING 201
SWIDTH 569 0
DWIDTH 11 0
BBX 12 18 1 0
BITMAP
00E0
0180
0300
0000
1FF0
0C10
0C30
0C00
0800
1840
1FC0
1880
1800
1000
3000
3040
3040
FFC0
ENDCHAR
STARTCHAR Ecircumflex
ENCODING 202
SWIDTH 569 0
DWIDTH 11 0
BBX 12 18 1 0
BITMAP
01C0
0340
0420
0000
1FF0
0C10
0C30
0C00
0800
1840
1FC0
1880
1800
1000
3000
3040
3040
FFC0
ENDCHAR
STARTCHAR Edieresis
ENCODING 203
SWIDTH 569 0
DWIDTH 11 0
BBX 12 16 1 0
BITMAP
0660
0000
1FF0
0C10
0C30
0C00
0800
1840
1FC0
1880
1800
1000
3000
3040
3040
FFC0
ENDCHAR
STARTCHAR Igrave
ENCODING 204
SWIDTH 325 0
DWIDTH 6 0
BBX 8 18 1 0
BITMAP
0C
04
02
00
1F
0C
0C
0C
08
18
18
18
18
10
30
30
30
F8
ENDCHAR
STARTCHAR Iacute
ENCODING 205
SWIDTH 325 0
DWIDTH 6 0
BBX 9 18 1 0
BITMAP
0380
0600
0C00
0000
1F00
0C00
0C00
0C00
0800
1800
1800
1800
1800
1000
3000
3000
3000
F800
ENDCHAR
STARTCHAR Icircumflex
ENCODING 206
SWIDTH 325 0
DWIDTH 6 0
BBX 9 18 1 0
BITMAP
0700
0D00
1080
0000
1F00
0C00
0C00
0C00
0800
1800
1800
1800
1800
1000
3000
3000
3000
F800
ENDCHAR
STARTCHAR Idieresis
ENCODING 207
SWIDTH 325 0
DWIDTH 6 0
BBX 9 16 1 0
BITMAP
1980
0000
1F00
0C00
0C00
0C00
0800
1800
1800
1800
1800
1000
3000
3000
3000
F800
ENDCHAR
STARTCHAR Eth
ENCODING 208
SWIDTH 770 0
DWIDTH 15 0
BBX 15 14 0 0
BITMAP
1FF0
0C1C
0C0C
0C06
0C06
1806
7F06
1806
180C
180C
3018
3038
3060
FF80
ENDCHAR
STARTCHAR Ntilde
ENCODING 209
SWIDTH 762 0
DWIDTH 14 0
BBX 16 17 0 0
BITMAP
00C8
0130
0000
1C0F
0C02
0E04
0E04
1304
1384
1184
10C8
10C8
1068
2068
2038
2030
F010
ENDCHAR
STARTCHAR Ograve
ENCODING 210
SWIDTH 783 0
DWIDTH 15 0
BBX 13 18 2 0
BITMAP
0180
0080
0040
0000
03E0
0C30
1818
3018
6018
6018
C018
C018
C018
C030
C030
6060
71C0
1F00
ENDCHAR
STARTCHAR Oacute
ENCODING 211
SWIDTH 783 0
DWIDTH 15 0
BBX 13 18 2 0
BITMAP
0070
00C0
0180
0000
03E0
0C30
1818
3018
6018
6018
C018
C018
C018
C030
C030
6060
71C0
1F00
ENDCHAR
STARTCHAR Ocircumflex
ENCODING 212
SWIDTH 783 0
DWIDTH 15 0
BBX 13 18 2 0
BITMAP
01C0
0340
0420
0000
03E0
0C30
1818
3018
6018
6018
C018
C018
C018
C030
C030
6060
71C0
1F00
ENDCHAR
STARTCHAR Otilde
ENCODING 213
SWIDTH 783 0
DWIDTH 15 0
BBX 13 17 2 0
BITMAP
0190
0260
0000
03E0
0C30
1818
3018
6018
6018
C018
C018
C018
C030
C030
6060
71C0
1F00
ENDCHAR
STARTCHAR Odieresis
ENCODING 214
SWIDTH 783 0
DWIDTH 15 0
BBX 13 16 2 0
BITMAP
0330
0000
03E0
0C30
1818
3018
6018
6018
C018
C018
C018
C030
C030
6060
71C0
1F00
ENDCHAR
STARTCHAR multiply
ENCODING 215
SWIDTH 608 0
DWIDTH 12 0
BBX 13 12 0 0
BITMAP
2008
3010
1020
0840
0480
0300
0700
0D00
1080
20C0
4040
8020
ENDCHAR
STARTCHAR Oslash
ENCODING 216
SWIDTH 783 0
DWIDTH 15 0
BBX 16 14 1 0
BITMAP
01F3
061C
0C0C
181C
3026
3046
7084
610C
620C
6408
7818
3030
5860
CF80
ENDCHAR
STARTCHAR Ugrave
ENCODING 217
SWIDTH 727 0
DWIDTH 14 0
BBX 13 18 3 0
BITMAP
0600
0200
0100
0000
FC78
7020
6020
6020
6020
6040
6040
C040
C040
C040
C080
C080
6100
3E00
ENDCHAR
STARTCHAR Uacute
ENCODING 218
SWIDTH 727 0
DWIDTH 14 0
BBX 13 18 3 0
BITMAP
01C0
0300
0600
0000
FC78
7020
6020
6020
6020
6040
6040
C040
C040
C040
C080
C080
6100
3E00
ENDCHAR
STARTCHAR Ucircumflex
ENCODING 219
SWIDTH 727 0
DWIDTH 14 0
BBX 13 18 3 0
BITMAP
0380
0680
0840
0000
FC78
7020
6020
6020
6020
6040
6040
C040
C040
C040
C080
C080
6100
3E00
ENDCHAR
STARTCHAR Udieresis
ENCODING 220
SWIDTH 727 0
DWIDTH 14 0
BBX 13 16 3 0
BITMAP
0CC0
0000
FC78
7020
6020
6020
6020
6040
6040
C040
C040
C040
C080
C080
6100
3E00
ENDCHAR
STARTCHAR Yacute
ENCODING 221
SWIDTH 663 0
DWIDTH 13 0
BBX 13 18 2 0
BITMAP
01C0
0300
0600
0000
F878
7030
3060
30C0
1880
1900
1E00
0C00
0C00
0C00
1800
1800
1800
7E00
ENDCHAR
STARTCHAR Thorn
ENCODING 222
SWIDTH 579 0
DWIDTH 11 0
BBX 12 14 0 0
BITMAP
1F00
0E00
0C00
0FE0
0C70
0C30
1830
1830
1860
18C0
3F00
3000
3000
FC00
ENDCHAR
STARTCHAR germandbls
ENCODING 223
SWIDTH 603 0
DWIDTH 11 0
BBX 10 19 1 -4
BITMAP
0780
0CC0
18C0
1880
1900
1A00
3600
3600
3300
3180
30C0
6040
6C40
68C0
6F00
6000
C000
C000
C000
ENDCHAR
STARTCHAR agrave
ENCODING 224
SWIDTH 608 0
DWIDTH 12 0
BBX 10 14 2 0
BITMAP
0600
0200
0100
0000
0FC0
10C0
20C0
6080
6180
C180
C380
C580
C900
73C0
ENDCHAR
STARTCHAR aacute
ENCODING 225
SWIDTH 608 0
DWIDTH 12 0
BBX 10 14 2 0
BITMAP
01C0
0300
0600
0000
0FC0
10C0
20C0
6080
6180
C180
C380
C580
C900
73C0
ENDCHAR
STARTCHAR acircumflex
ENCODING 226
SWIDTH 608 0
DWIDTH 12 0
BBX 10 14 2 0
BITMAP
0380
0680
0840
0000
0FC0
10C0
20C0
6080
6180
C180
C380
C580
C900
73C0
ENDCHAR
STARTCHAR atilde
ENCODING 227
SWIDTH 608 0
DWIDTH 12 0
BBX 10 13 2 0
BITMAP
0640
0980
0000
0FC0
10C0
20C0
6080
6180
C180
C380
C580
C900
73C0
ENDCHAR
STARTCHAR adieresis
ENCODING 228
SWIDTH 608 0
DWIDTH 12 0
BBX 10 12 2 0
BITMAP
0CC0
0000
0FC0
10C0
20C0
6080
6180
C180
C380
C580
C900
73C0
ENDCHAR
STARTCHAR aring
ENCODING 229
SWIDTH 608 0
DWIDTH 12 0
BBX 10 14 2 0
BITMAP
0380
0280
0380
0000
0FC0
10C0
20C0
6080
6180
C180
C380
C580
C900
73C0
ENDCHAR
STARTCHAR ae
ENCODING 230
SWIDTH 881 0
DWIDTH 17 0
BBX 16 10 1 0
BITMAP
0FDE
10E6
20C2
6086
418C
C3F0
C380
C581
C9C6
70F8
ENDCHAR
STARTCHAR ccedilla
ENCODING 231
SWIDTH 487 0
DWIDTH 9 0
BBX 9 14 2 -4
BITMAP
0F80
1100
2100
4000
C000
C000
C000
C000
C200
7C00
2000
3000
1000
7000
ENDCHAR
STARTCHAR egrave
ENCODING 232
SWIDTH 518 0
DWIDTH 10 0
BBX 8 14 2 0
BITMAP
0C
04
02
00
0F
33
63
43
C6
F8
C0
C1
E3
7C
ENDCHAR
STARTCHAR eacute
ENCODING 233
SWIDTH 518 0
DWIDTH 10 0
BBX 10 14 2 0
BITMAP
01C0
0300
0600
0000
0F00
3300
6300
4300
C600
F800
C000
C100
E300
7C00
ENDCHAR
STARTCHAR ecircumflex
ENCODING 234
SWIDTH 518 0
DWIDTH 10 0
BBX 9 14 2 0
BITMAP
0700
0D00
1080
0000
0F00
3300
6300
4300
C600
F800
C000
C100
E300
7C00
ENDCHAR
STARTCHAR edieresis
ENCODING 235
SWIDTH 518 0
DWIDTH 10 0
BBX 9 12 2 0
BITMAP
1980
0000
0F00
3300
6300
4300
C600
F800
C000
C100
E300
7C00
ENDCHAR
STARTCHAR igrave
ENCODING 236
SWIDTH 289 0
DWIDTH 5 0
BBX 5 14 2 0
BITMAP
30
10
08
00
F0
30
20
60
60
60
60
40
C0
F0
ENDCHAR
STARTCHAR iacute
ENCODING 237
SWIDTH 289 0
DWIDTH 5 0
BBX 7 14 2 0
BITMAP
0E
18
30
00
F0
30
20
60
60
60
60
40
C0
F0
ENDCHAR
STARTCHAR icircumflex
ENCODING 238
SWIDTH 289 0
DWIDTH 5 0
BBX 7 14 2 0
BITMAP
1C
34
42
00
F0
30
20
60
60
60
60
40
C0
F0
ENDCHAR
STARTCHAR idieresis
ENCODING 239
SWIDTH 289 0
DWIDTH 5 0
BBX 7 12 2 0
BITMAP
66
00
F0
30
20
60
60
60
60
40
C0
F0
ENDCHAR
STARTCHAR eth
ENCODING 240
SWIDTH 562 0
DWIDTH 11 0
BBX 9 15 2 0
BITMAP
0180
3F00
0700
0F00
1180
0F80
3180
6180
4180
C180
C180
C100
C300
C600
7800
ENDCHAR
STARTCHAR ntilde
ENCODING 241
SWIDTH 631 0
DWIDTH 12 0
BBX 10 13 2 0
BITMAP
0640
0980
0000
F380
24C0
68C0
7080
6180
6180
4180
C180
C180
C3C0
ENDCHAR
STARTCHAR ograve
ENCODING 242
SWIDTH 560 0
DWIDTH 11 0
BBX 9 14 2 0
BITMAP
0600
0200
0100
0000
0F00
3180
6180
6180
C180
C180
C180
C300
E600
7800
ENDCHAR
STARTCHAR oacute
ENCODING 243
SWIDTH 560 0
DWIDTH 11 0
BBX 10 14 2 0
BITMAP
01C0
0300
0600
0000
0F00
3180
6180
6180
C180
C180
C180
C300
E600
7800
ENDCHAR
STARTCHAR ocircumflex
ENCODING 244
SWIDTH 560 0
DWIDTH 11 0
BBX 9 14 2 0
BITMAP
0700
0D00
1080
0000
0F00
3180
6180
6180
C180
C180
C180
C300
E600
7800
ENDCHAR
STARTCHAR otilde
ENCODING 245
SWIDTH 560 0
DWIDTH 11 0
BBX 10 13 2 0
BITMAP
0640
0980
0000
0F00
3180
6180
6180
C180
C180
C180
C300
E600
7800
ENDCHAR
STARTCHAR odieresis
ENCODING 246
SWIDTH 560 0
DWIDTH 11 0
BBX 10 12 2 0
BITMAP
0CC0
0000
0F00
3180
6180
6180
C180
C180
C180
C300
E600
7800
ENDCHAR
STARTCHAR divide
ENCODING 247
SWIDTH 608 0
DWIDTH 12 0
BBX 11 10 1 0
BITMAP
0600
0000
0000
0000
0000
FFE0
0000
0000
0000
0C00
ENDCHAR
STARTCHAR oslash
ENCODING 248
SWIDTH 560 0
DWIDTH 11 0
BBX 11 10 1 0
BITMAP
07A0
18C0
30C0
21C0
62C0
6CC0
7080
6180
7300
FC00
ENDCHAR
STARTCHAR ugrave
ENCODING 249
SWIDTH 630 0
DWIDTH 12 0
BBX 10 14 2 0
BITMAP
0600
0200
0100
0000
F3C0
60C0
60C0
6080
6180
6180
4380
C580
C900
73C0
ENDCHAR
STARTCHAR uacute
ENCODING 250
SWIDTH 630 0
DWIDTH 12 0
BBX 10 14 2 0
BITMAP
01C0
0300
0600
0000
F3C0
60C0
60C0
6080
6180
6180
4380
C580
C900
73C0
ENDCHAR
STARTCHAR ucircumflex
ENCODING 251
SWIDTH 630 0
DWIDTH 12 0
BBX 10 14 2 0
BITMAP
0380
0680
0840
0000
F3C0
60C0
60C0
6080
6180
6180
4380
C580
C900
73C0
ENDCHAR
STARTCHAR udieresis
ENCODING 252
SWIDTH 630 0
DWIDTH 12 0
BBX 10 12 2 0
BITMAP
0CC0
0000
F3C0
60C0
60C0
6080
6180
6180
4380
C580
C900
73C0
ENDCHAR
STARTCHAR yacute
ENCODING 253
SWIDTH 558 0
DWIDTH 11 0
BBX 12 18 0 -4
BITMAP
0070
00C0
0180
0000
7870
1830
1820
0820
0C40
0C80
0D00
0D00
0E00
0400
0800
1000
3000
E000
ENDCHAR
STARTCHAR thorn
ENCODING 254
SWIDTH 608 0
DWIDTH 12 0
BBX 11 18 1 -4
BITMAP
7800
1800
1800
1800
11C0
3260
3460
3860
3060
30C0
60C0
6080
6100
7E00
4000
C000
C000
C000
ENDCHAR
STARTCHAR ydieresis
ENCODING 255
SWIDTH 558 0
DWIDTH 11 0
BBX 12 16 0 -4
BITMAP
0660
0000
7870
1830
1820
0820
0C40
0C80
0D00
0D00
0E00
0400
0800
1000
3000
E000
ENDCHAR
STARTCHAR Amacron
ENCODING 256
SWIDTH 747 0
DWIDTH 14 0
BBX 14 16 0 0
BITMAP
03E0
0000
0040
00C0
00E0
0160
0160
0260
0460
0430
0830
1FF0
2030
2030
6038
F07C
ENDCHAR
STARTCHAR amacron
ENCODING 257
SWIDTH 608 0
DWIDTH 12 0
BBX 10 12 2 0
BITMAP
0F80
0000
0FC0
10C0
20C0
6080
6180
C180
C380
C580
C900
73C0
ENDCHAR
STARTCHAR Abreve
ENCODING 258
SWIDTH 747 0
DWIDTH 14 0
BBX 14 18 0 0
BITMAP
0210
0360
01C0
0000
0040
00C0
00E0
0160
0160
0260
0460
0430
0830
1FF0
2030
2030
6038
F07C
ENDCHAR
STARTCHAR abreve
ENCODING 259
SWIDTH 608 0
DWIDTH 12 0
BBX 10 14 2 0
BITMAP
0840
0D80
0700
0000
0FC0
10C0
20C0
6080
6180
C180
C380
C580
C900
73C0
ENDCHAR
STARTCHAR Aogonek
ENCODING 260
SWIDTH 747 0
DWIDTH 14 0
BBX 14 18 0 -4
BITMAP
0040
00C0
00E0
0160
0160
0260
0460
0430
0830
1FF0
2030
2030
6038
F07C
0000
0180
0200
0380
ENDCHAR
STARTCHAR aogonek
ENCODING 261
SWIDTH 608 0
DWIDTH 12 0
BBX 10 14 2 -4
BITMAP
0FC0
10C0
20C0
6080
6180
C180
C380
C580
C900
73C0
0000
0C00
1000
1C00
ENDCHAR
STARTCHAR Cacute
ENCODING 262
SWIDTH 714 0
DWIDTH 14 0
BBX 13 18 2 0
BITMAP
00E0
0180
0300
0000
03F8
0C18
1818
3018
6000
6000
C000
C000
C000
C000
C000
6000
7060
1F80
ENDCHAR
STARTCHAR cacute
ENCODING 263
SWIDTH 487 0
DWIDTH 9 0
BBX 9 14 2 0
BITMAP
0380
0600
0C00
0000
0F80
1100
2100
4000
C000
C000
C000
C000
C200
7C00
ENDCHAR
STARTCHAR Ccircumflex
ENCODING 264
SWIDTH 714 0
DWIDTH 14 0
BBX 13 18 2 0
BITMAP
01C0
0340
0420
0000
03F8
0C18
1818
3018
6000
6000
C000
C000
C000
C000
C000
6000
7060
1F80
ENDCHAR
STARTCHAR ccircumflex
ENCODING 265
SWIDTH 487 0
DWIDTH 9 0
BBX 9 14 2 0
BITMAP
0E00
1A00
2100
0000
0F80
1100
2100
4000
C000
C000
C000
C000
C200
7C00
ENDCHAR
STARTCHAR Cdotaccent
ENCODING 266
SWIDTH 714 0
DWIDTH 14 0
BBX 13 16 2 0
BITMAP
0180
0000
03F8
0C18
1818
3018
6000
6000
C000
C000
C000
C000
C000
6000
7060
1F80
ENDCHAR
STARTCHAR cdotaccent
ENCODING 267
SWIDTH 487 0
DWIDTH 9 0
BBX 9 12 2 0
BITMAP
0C00
0000
0F80
1100
2100
4000
C000
C000
C000
C000
C200
7C00
ENDCHAR
STARTCHAR Ccaron
ENCODING 268
SWIDTH 714 0
DWIDTH 14 0
BBX 13 18 2 0
BITMAP
0420
02C0
0380
0000
03F8
0C18
1818
3018
6000
6000
C000
C000
C000
C000
C000
6000
7060
1F80
ENDCHAR
STARTCHAR ccaron
ENCODING 269
SWIDTH 487 0
DWIDTH 9 0
BBX 9 14 2 0
BITMAP
1080
0B00
0E00
0000
0F80
1100
2100
4000
C000
C000
C000
C000
C200
7C00
ENDCHAR
STARTCHAR Dcaron
ENCODING 270
SWIDTH 770 0
DWIDTH 15 0
BBX 15 18 0 0
BITMAP
0210
0160
01C0
0000
1FF0
0C1C
0C0C
0C06
0C06
1806
1806
1806
180C
180C
3018
3038
3060
FF80
ENDCHAR
STARTCHAR dcaron
ENCODING 271
SWIDTH 843 0
DWIDTH 16 0
BBX 15 14 2 0
BITMAP
01E6
0066
0046
00C4
0FCC
10C0
20C0
6080
6180
C180
C380
C580
C900
73C0
ENDCHAR
STARTCHAR Dcroat
ENCODING 272
SWIDTH 770 0
DWIDTH 15 0
BBX 15 14 0 0
BITMAP
1FF0
0C1C
0C0C
0C06
0C06
1806
7F06
1806
180C
180C
3018
3038
3060
FF80
ENDCHAR
STARTCHAR dcroat
ENCODING 273
SWIDTH 608 0
DWIDTH 12 0
BBX 12 14 2 0
BITMAP
01E0
0060
0FF0
00C0
0FC0
10C0
20C0
6080
6180
C180
C380
C580
C900
73C0
ENDCHAR
STARTCHAR Emacron
ENCODING 274
SWIDTH 569 0
DWIDTH 11 0
BBX 12 16 1 0
BITMAP
0F80
0000
1FF0
0C10
0C30
0C00
0800
1840
1FC0
1880
1800
1000
3000
3040
3040
FFC0
ENDCHAR
STARTCHAR emacron
ENCODING 275
SWIDTH 518 0
DWIDTH 10 0
BBX 8 12 2 0
BITMAP
3E
00
0F
33
63
43
C6
F8
C0
C1
E3
7C
ENDCHAR
STARTCHAR Ebreve
ENCODING 276
SWIDTH 569 0
DWIDTH 11 0
BBX 12 18 1 0
BITMAP
0840
0D80
0700
0000
1FF0
0C10
0C30
0C00
0800
1840
1FC0
1880
1800
1000
3000
3040
3040
FFC0
ENDCHAR
STARTCHAR ebreve
ENCODING 277
SWIDTH 518 0
DWIDTH 10 0
BBX 8 14 2 0
BITMAP
21
36
1C
00
0F
33
63
43
C6
F8
C0
C1
E3
7C
ENDCHAR
STARTCHAR Edotaccent
ENCODING 278
SWIDTH 569 0
DWIDTH 11 0
BBX 12 16 1 0
BITMAP
0300
0000
1FF0
0C10
0C30
0C00
0800
1840
1FC0
1880
1800
1000
3000
3040
3040
FFC0
ENDCHAR
STARTCHAR edotaccent
ENCODING 279
SWIDTH 518 0
DWIDTH 10 0
BBX 8 12 2 0
BITMAP
0C
00
0F
33
63
43
C6
F8
C0
C1
E3
7C
ENDCHAR
STARTCHAR Eogonek
ENCODING 280
SWIDTH 569 0
DWIDTH 11 0
BBX 12 18 1 -4
BITMAP
1FF0
0C10
0C30
0C00
0800
1840
1FC0
1880
1800
1000
3000
3040
3040
FFC0
0000
0C00
1000
1C00
ENDCHAR
STARTCHAR eogonek
ENCODING 281
SWIDTH 518 0
DWIDTH 10 0
BBX 8 14 2 -4
BITMAP
0F
33
63
43
C6
F8
C0
C1
E3
7C
00
18
20
38
ENDCHAR
STARTCHAR Ecaron
ENCODING 282
SWIDTH 569 0
DWIDTH 11 0
BBX 12 18 1 0
BITMAP
0840
0580
0700
0000
1FF0
0C10
0C30
0C00
0800
1840
1FC0
1880
1800
1000
3000
3040
3040
FFC0
ENDCHAR
STARTCHAR ecaron
ENCODING 283
SWIDTH 518 0
DWIDTH 10 0
BBX 8 14 2 0
BITMAP
21
16
1C
00
0F
33
63
43
C6
F8
C0
C1
E3
7C
ENDCHAR
STARTCHAR Gcircumflex
ENCODING 284
SWIDTH 756 0
DWIDTH 14 0
BBX 13 18 2 0
BITMAP
0380
0680
0840
0000
03F8
0C18
1810
3000
6000
6000
C000
C000
C1F8
C060
C060
6060
70C0
1F80
ENDCHAR
STARTCHAR gcircumflex
ENCODING 285
SWIDTH 602 0
DWIDTH 11 0
BBX 11 18 1 -4
BITMAP
0380
0680
0840
0000
07E0
0860
1060
3040
20C0
60C0
61C0
62C0
6580
3980
0180
8100
C200
7C00
ENDCHAR
STARTCHAR Gbreve
ENCODING 286
SWIDTH 756 0
DWIDTH 14 0
BBX 13 18 2 0
BITMAP
0420
06C0
0380
0000
03F8
0C18
1810
3000
6000
6000
C000
C000
C1F8
C060
C060
6060
70C0
1F80
ENDCHAR
STARTCHAR gbreve
ENCODING 287
SWIDTH 602 0
DWIDTH 11 0
BBX 11 18 1 -4
BITMAP
0840
0D80
0700
0000
07E0
0860
1060
3040
20C0
60C0
61C0
62C0
6580
3980
0180
8100
C200
7C00
ENDCHAR
STARTCHAR Gdotaccent
ENCODING 288
SWIDTH 756 0
DWIDTH 14 0
BBX 13 16 2 0
BITMAP
0300
0000
03F8
0C18
1810
3000
6000
6000
C000
C000
C1F8
C060
C060
6060
70C0
1F80
ENDCHAR
STARTCHAR gdotaccent
ENCODING 289
SWIDTH 602 0
DWIDTH 11 0
BBX 11 16 1 -4
BITMAP
0300
0000
07E0
0860
1060
3040
20C0
60C0
61C0
62C0
6580
3980
0180
8100
C200
7C00
ENDCHAR
STARTCHAR Gcommaaccent
ENCODING 290
SWIDTH 756 0
DWIDTH 14 0
BBX 13 22 2 -8
BITMAP
03F8
0C18
1810
3000
6000
6000
C000
C000
C1F8
C060
C060
6060
70C0
1F80
0000
0600
0600
0600
0600
0400
0400
0800
ENDCHAR
STARTCHAR gcommaaccent
ENCODING 291
SWIDTH 602 0
DWIDTH 11 0
BBX 11 20 1 -4
BITMAP
0300
0200
0600
0700
0600
0000
07E0
0860
1060
3040
20C0
60C0
61C0
62C0
6580
3980
0180
8100
C200
7C00
ENDCHAR
STARTCHAR Hcircumflex
ENCODING 292
SWIDTH 776 0
DWIDTH 15 0
BBX 17 18 0 0
BITMAP
00E000
01A000
021000
000000
1F1F80
0E0600
0C0600
0C0600
0C0C00
180C00
1FFC00
180C00
180C00
181800
301800
301800
303800
FC7C00
ENDCHAR
STARTCHAR hcircumflex
ENCODING 293
SWIDTH 631 0
DWIDTH 12 0
BBX 10 18 2 0
BITMAP
1C00
3400
4200
0000
7800
1000
3000
3000
3380
24C0
28C0
7080
6180
6180
4180
4180
C180
C3C0
ENDCHAR
STARTCHAR Hbar
ENCODING 294
SWIDTH 776 0
DWIDTH 15 0
BBX 17 14 0 0
BITMAP
1F1F80
0E0600
0C0600
FFFF80
0C0C00
180C00
1FFC00
180C00
180C00
181800
301800
301800
303800
FC7C00
ENDCHAR
STARTCHAR hbar
ENCODING 295
SWIDTH 631 0
DWIDTH 12 0
BBX 11 14 1 0
BITMAP
3C00
0800
FF00
1800
19C0
1260
1460
3840
30C0
30C0
20C0
20C0
60C0
61E0
ENDCHAR
STARTCHAR Itilde
ENCODING 296
SWIDTH 325 0
DWIDTH 6 0
BBX 8 17 1 0
BITMAP
19
26
00
1F
0C
0C
0C
08
18
18
18
18
10
30
30
30
F8
ENDCHAR
STARTCHAR itilde
ENCODING 297
SWIDTH 289 0
DWIDTH 5 0
BBX 6 13 1 0
BITMAP
64
98
00
78
18
10
30
30
30
30
20
60
78
ENDCHAR
STARTCHAR Imacron
ENCODING 298
SWIDTH 325 0
DWIDTH 6 0
BBX 8 16 1 0
BITMAP
3E
00
1F
0C
0C
0C
08
18
18
18
18
10
30
30
30
F8
ENDCHAR
STARTCHAR imacron
ENCODING 299
SWIDTH 289 0
DWIDTH 5 0
BBX 5 12 2 0
BITMAP
F8
00
F0
30
20
60
60
60
60
40
C0
F0
ENDCHAR
STARTCHAR Ibreve
ENCODING 300
SWIDTH 325 0
DWIDTH 6 0
BBX 8 18 1 0
BITMAP
21
36
1C
00
1F
0C
0C
0C
08
18
18
18
18
10
30
30
30
F8
ENDCHAR
STARTCHAR ibreve
ENCODING 301
SWIDTH 289 0
DWIDTH 5 0
BBX 6 14 2 0
BITMAP
84
D8
70
00
F0
30
20
60
60
60
60
40
C0
F0
ENDCHAR
STARTCHAR Iogonek
ENCODING 302
SWIDTH 325 0
DWIDTH 6 0
BBX 8 18 1 -4
BITMAP
1F
0C
0C
0C
08
18
18
18
18
10
30
30
30
F8
00
30
40
70
ENDCHAR
STARTCHAR iogonek
ENCODING 303
SWIDTH 289 0
DWIDTH 5 0
BBX 5 18 2 -4
BITMAP
18
00
00
00
F0
30
30
20
60
60
60
40
C0
F0
00
60
80
E0
ENDCHAR
STARTCHAR Idotaccent
ENCODING 304
SWIDTH 325 0
DWIDTH 6 0
BBX 8 16 1 0
BITMAP
0C
00
1F
0C
0C
0C
08
18
18
18
18
10
30
30
30
F8
ENDCHAR
STARTCHAR dotlessi
ENCODING 305
SWIDTH 289 0
DWIDTH 5 0
BBX 4 10 2 0
BITMAP
F0
30
20
60
60
60
60
40
C0
F0
ENDCHAR
STARTCHAR IJ
ENCODING 306
SWIDTH 731 0
DWIDTH 14 0
BBX 16 18 1 -4
BITMAP
1F3F
0C0C
0C0C
0C0C
0818
1818
1818
1818
1818
1018
3030
3030
3030
F830
0020
0660
0440
0780
ENDCHAR
STARTCHAR ij
ENCODING 307
SWIDTH 618 0
DWIDTH 12 0
BBX 12 18 2 -4
BITMAP
1830
0000
0000
0000
F0E0
3060
3060
2060
6040
6040
60C0
40C0
C0C0
F080
0180
1180
1100
1E00
ENDCHAR
STARTCHAR Jcircumflex
ENCODING 308
SWIDTH 422 0
DWIDTH 8 0
BBX 11 22 0 -4
BITMAP
0380
0680
0840
0000
07E0
0180
0180
0180
0300
0300
0300
0300
0300
0300
0600
0600
0600
0600
0400
CC00
8800
F000
ENDCHAR
STARTCHAR jcircumflex
ENCODING 309
SWIDTH 343 0
DWIDTH 7 0
BBX 9 18 0 -4
BITMAP
0700
0D00
1080
0000
0700
0300
0300
0300
0200
0200
0600
0600
0600
0400
0C00
8C00
8800
F000
ENDCHAR
STARTCHAR Kcommaaccent
ENCODING 310
SWIDTH 698 0
DWIDTH 13 0
BBX 14 22 1 -8
BITMAP
1F3C
0C18
0C20
0C40
0980
1B00
1E00
1F00
1B00
3180
31C0
30C0
3060
F9F0
0000
0300
0300
0300
0300
0200
0200
0400
ENDCHAR
STARTCHAR kcommaaccent
ENCODING 311
SWIDTH 560 0
DWIDTH 11 0
BBX 10 22 1 -8
BITMAP
7800
1800
1000
3000
30C0
3180
3300
6400
7800
6C00
6C00
4600
C300
C3C0
0000
0C00
0C00
0C00
0C00
0800
0800
1000
ENDCHAR
STARTCHAR kgreenlandic
ENCODING 312
SWIDTH 560 0
DWIDTH 11 0
BBX 10 10 1 0
BITMAP
30C0
3180
3300
6400
7800
6C00
6C00
4600
C300
C3C0
ENDCHAR
STARTCHAR Lacute
ENCODING 313
SWIDTH 572 0
DWIDTH 11 0
BBX 11 18 0 0
BITMAP
0380
0600
0C00
0000
1F00
0E00
0C00
0C00
0C00
0C00
1800
1800
1800
1800
3000
3020
3060
FFE0
ENDCHAR
STARTCHAR lacute
ENCODING 314
SWIDTH 289 0
DWIDTH 5 0
BBX 7 18 2 0
BITMAP
0E
18
30
00
78
18
10
30
30
30
30
60
60
60
60
40
C0
F0
ENDCHAR
STARTCHAR Lcommaaccent
ENCODING 315
SWIDTH 572 0
DWIDTH 11 0
BBX 11 22 0 -8
BITMAP
1F00
0E00
0C00
0C00
0C00
0C00
1800
1800
1800
1800
3000
3020
3060
FFE0
0000
0600
0600
0600
0600
0400
0400
0800
ENDCHAR
STARTCHAR lcommaaccent
ENCODING 316
SWIDTH 289 0
DWIDTH 5 0
BBX 5 22 2 -8
BITMAP
78
18
10
30
30
30
30
60
60
60
60
40
C0
F0
00
60
60
60
60
40
40
80
ENDCHAR
STARTCHAR Lcaron
ENCODING 317
SWIDTH 808 0
DWIDTH 15 0
BBX 16 14 0 0
BITMAP
1F03
0E03
0C03
0C02
0C06
0C00
1800
1800
1800
1800
3000
3020
3060
FFE0
ENDCHAR
STARTCHAR lcaron
ENCODING 318
SWIDTH 540 0
DWIDTH 10 0
BBX 9 14 2 0
BITMAP
7980
1980
1180
3100
3300
3000
3000
6000
6000
6000
6000
4000
C000
F000
ENDCHAR
STARTCHAR Ldot
ENCODING 319
SWIDTH 1151 0
DWIDTH 22 0
BBX 18 14 0 0
BITMAP
1F0000
0E0000
0C0000
0C0000
0C0000
0C0000
180000
1800C0
180000
180000
300000
302000
306000
FFE000
ENDCHAR
STARTCHAR ldot
ENCODING 320
SWIDTH 883 0
DWIDTH 17 0
BBX 11 14 2 0
BITMAP
7800
1800
1000
3000
3000
3000
3000
6060
6000
6000
6000
4000
C000
F000
ENDCHAR
STARTCHAR Lslash
ENCODING 321
SWIDTH 572 0
DWIDTH 11 0
BBX 10 14 1 0
BITMAP
1F00
0C00
0C00
0C00
0800
1A00
1C00
3800
5800
3000
3000
3040
30C0
FFC0
ENDCHAR
STARTCHAR lslash
ENCODING 322
SWIDTH 289 0
DWIDTH 5 0
BBX 6 14 1 0
BITMAP
38
18
18
18
10
30
3C
F0
30
20
60
60
60
70
ENDCHAR
STARTCHAR Nacute
ENCODING 323
SWIDTH 762 0
DWIDTH 14 0
BBX 16 18 0 0
BITMAP
0070
00C0
0180
0000
1C0F
0C02
0E04
0E04
1304
1384
1184
10C8
10C8
1068
2068
2038
2030
F010
ENDCHAR
STARTCHAR nacute
ENCODING 324
SWIDTH 631 0
DWIDTH 12 0
BBX 10 14 2 0
BITMAP
0380
0600
0C00
0000
F380
24C0
68C0
7080
6180
6180
4180
C180
C180
C3C0
ENDCHAR
STARTCHAR Ncommaaccent
ENCODING 325
SWIDTH 762 0
DWIDTH 14 0
BBX 16 22 0 -8
BITMAP
1C0F
0C02
0E04
0E04
1304
1384
1184
10C8
10C8
1068
2068
2038
2030
F010
0000
0180
0180
0180
0180
0100
0100
0200
ENDCHAR
STARTCHAR ncommaaccent
ENCODING 326
SWIDTH 631 0
DWIDTH 12 0
BBX 10 18 2 -8
BITMAP
F380
24C0
68C0
7080
6180
6180
4180
C180
C180
C3C0
0000
0C00
0C00
0C00
0C00
0800
0800
1000
ENDCHAR
STARTCHAR Ncaron
ENCODING 327
SWIDTH 762 0
DWIDTH 14 0
BBX 16 18 0 0
BITMAP
0210
0160
01C0
0000
1C0F
0C02
0E04
0E04
1304
1384
1184
10C8
10C8
1068
2068
2038
2030
F010
ENDCHAR
STARTCHAR ncaron
ENCODING 328
SWIDTH 631 0
DWIDTH 12 0
BBX 10 14 2 0
BITMAP
2100
1600
1C00
0000
F380
24C0
68C0
7080
6180
6180
4180
C180
C180
C3C0
ENDCHAR
STARTCHAR napostrophe
ENCODING 329
SWIDTH 883 0
DWIDTH 17 0
BBX 14 14 3 0
BITMAP
6000
6000
6000
4000
CF38
024C
068C
0708
0618
0618
0418
0C18
0C18
0C3C
ENDCHAR
STARTCHAR Eng
ENCODING 330
SWIDTH 762 0
DWIDTH 14 0
BBX 16 18 0 -4
BITMAP
1C0F
0C02
0E04
0E04
1304
1384
1184
10C8
10C8
1068
2078
2038
2038
F010
0030
0230
0220
03C0
ENDCHAR
STARTCHAR eng
ENCODING 331
SWIDTH 631 0
DWIDTH 12 0
BBX 10 14 2 -4
BITMAP
F380
24C0
68C0
7080
6180
6180
4180
C180
C180
C100
0300
2300
2200
3C00
ENDCHAR
STARTCHAR Omacron
ENCODING 332
SWIDTH 783 0
DWIDTH 15 0
BBX 13 16 2 0
BITMAP
07C0
0000
03E0
0C30
1818
3018
6018
6018
C018
C018
C018
C030
C030
6060
71C0
1F00
ENDCHAR
STARTCHAR omacron
ENCODING 333
SWIDTH 560 0
DWIDTH 11 0
BBX 9 12 2 0
BITMAP
1F00
0000
0F00
3180
6180
6180
C180
C180
C180
C300
E600
7800
ENDCHAR
STARTCHAR Obreve
ENCODING 334
SWIDTH 783 0
DWIDTH 15 0
BBX 13 18 2 0
BITMAP
0420
06C0
0380
0000
03E0
0C30
1818
3018
6018
6018
C018
C018
C018
C030
C030
6060
71C0
1F00
ENDCHAR
STARTCHAR obreve
ENCODING 335
SWIDTH 560 0
DWIDTH 11 0
BBX 9 14 2 0
BITMAP
1080
1B00
0E00
0000
0F00
3180
6180
6180
C180
C180
C180
C300
E600
7800
ENDCHAR
STARTCHAR Ohungarumlaut
ENCODING 336
SWIDTH 783 0
DWIDTH 15 0
BBX 13 18 2 0
BITMAP
00F0
0140
0280
0000
03E0
0C30
1818
3018
6018
6018
C018
C018
C018
C030
C030
6060
71C0
1F00
ENDCHAR
STARTCHAR ohungarumlaut
ENCODING 337
SWIDTH 560 0
DWIDTH 11 0
BBX 9 14 2 0
BITMAP
0780
0A00
1400
0000
0F00
3180
6180
6180
C180
C180
C180
C300
E600
7800
ENDCHAR
STARTCHAR OE
ENCODING 338
SWIDTH 1005 0
DWIDTH 19 0
BBX 19 14 2 0
BITMAP
03DFE0
0C3820
181860
301800
603000
603080
C03F80
C03100
C07000
C06000
C06000
60E080
70E080
1FFF80
ENDCHAR
STARTCHAR oe
ENCODING 339
SWIDTH 892 0
DWIDTH 17 0
BBX 16 10 1 0
BITMAP
0F8E
11B3
20E3
60C3
C0C6
C0F8
C180
C1C1
E6C2
7C7C
ENDCHAR
STARTCHAR Racute
ENCODING 340
SWIDTH 686 0
DWIDTH 13 0
BBX 13 18 0 0
BITMAP
00E0
0180
0300
0000
1FF0
0C30
0C38
0C30
0C30
0C20
18C0
1F80
1980
18C0
30C0
3060
3060
FC38
ENDCHAR
STARTCHAR racute
ENCODING 341
SWIDTH 470 0
DWIDTH 9 0
BBX 9 14 2 0
BITMAP
0700
0C00
1800
0000
F180
3700
3C00
7800
7000
6000
6000
4000
C000
C000
ENDCHAR
STARTCHAR Rcommaaccent
ENCODING 342
SWIDTH 686 0
DWIDTH 13 0
BBX 13 22 0 -8
BITMAP
1FF0
0C30
0C38
0C30
0C30
0C20
18C0
1F80
1980
18C0
30C0
3060
3060
FC38
0000
0600
0600
0600
0600
0400
0400
0800
ENDCHAR
STARTCHAR rcommaaccent
ENCODING 343
SWIDTH 470 0
DWIDTH 9 0
BBX 9 18 2 -8
BITMAP
F180
3700
3C00
7800
7000
6000
6000
4000
C000
C000
0000
6000
6000
6000
6000
4000
4000
8000
ENDCHAR
STARTCHAR Rcaron
ENCODING 344
SWIDTH 686 0
DWIDTH 13 0
BBX 13 18 0 0
BITMAP
0420
02C0
0380
0000
1FF0
0C30
0C38
0C30
0C30
0C20
18C0
1F80
1980
18C0
30C0
3060
3060
FC38
ENDCHAR
STARTCHAR rcaron
ENCODING 345
SWIDTH 470 0
DWIDTH 9 0
BBX 9 14 2 0
BITMAP
2100
1600
1C00
0000
F180
3700
3C00
7800
7000
6000
6000
4000
C000
C000
ENDCHAR
STARTCHAR Sacute
ENCODING 346
SWIDTH 549 0
DWIDTH 10 0
BBX 11 18 1 0
BITMAP
01C0
0300
0600
0000
0FC0
1860
1040
3040
3000
1800
0E00
0700
0380
0180
C180
8180
C300
7E00
ENDCHAR
STARTCHAR sacute
ENCODING 347
SWIDTH 440 0
DWIDTH 8 0
BBX 9 14 1 0
BITMAP
0380
0600
0C00
0000
0F00
3180
3100
3800
1C00
0E00
8600
8300
C600
7C00
ENDCHAR
STARTCHAR Scircumflex
ENCODING 348
SWIDTH 549 0
DWIDTH 10 0
BBX 11 18 1 0
BITMAP
0700
0D00
1080
0000
0FC0
1860
1040
3040
3000
1800
0E00
0700
0380
0180
C180
8180
C300
7E00
ENDCHAR
STARTCHAR scircumflex
ENCODING 349
SWIDTH 440 0
DWIDTH 8 0
BBX 9 14 1 0
BITMAP
0E00
1A00
2100
0000
0F00
3180
3100
3800
1C00
0E00
8600
8300
C600
7C00
ENDCHAR
STARTCHAR Scedilla
ENCODING 350
SWIDTH 549 0
DWIDTH 10 0
BBX 11 18 1 -4
BITMAP
0FC0
1860
1040
3040
3000
1800
0E00
0700
0380
0180
C180
8180
C300
7E00
0C00
0C00
0400
1C00
ENDCHAR
STARTCHAR scedilla
ENCODING 351
SWIDTH 440 0
DWIDTH 8 0
BBX 9 14 1 -4
BITMAP
0F00
3180
3100
3800
1C00
0E00
8600
8300
C600
7C00
1800
1800
0800
3800
ENDCHAR
STARTCHAR Scaron
ENCODING 352
SWIDTH 549 0
DWIDTH 10 0
BBX 11 18 1 0
BITMAP
0420
02C0
0380
0000
0FC0
1860
1040
3040
3000
1800
0E00
0700
0380
0180
C180
8180
C300
7E00
ENDCHAR
STARTCHAR scaron
ENCODING 353
SWIDTH 440 0
DWIDTH 8 0
BBX 10 14 1 0
BITMAP
0840
0580
0700
0000
0F00
3180
3100
3800
1C00
0E00
8600
8300
C600
7C00
ENDCHAR
STARTCHAR Tcommaaccent
ENCODING 354
SWIDTH 663 0
DWIDTH 13 0
BBX 12 18 3 -4
BITMAP
FFF0
8610
8610
0600
0C00
0C00
0C00
0C00
0C00
1800
1800
1800
1800
7E00
0C00
0C00
0400
1C00
ENDCHAR
STARTCHAR tcommaaccent
ENCODING 355
SWIDTH 355 0
DWIDTH 7 0
BBX 6 17 2 -4
BITMAP
30
30
30
FC
60
60
60
60
40
C0
C0
C0
70
60
60
20
E0
ENDCHAR
STARTCHAR Tcaron
ENCODING 356
SWIDTH 663 0
DWIDTH 13 0
BBX 12 18 3 0
BITMAP
1080
0B00
0E00
0000
FFF0
8610
8610
0600
0C00
0C00
0C00
0C00
0C00
1800
1800
1800
1800
7E00
ENDCHAR
STARTCHAR tcaron
ENCODING 357
SWIDTH 602 0
DWIDTH 12 0
BBX 11 14 2 0
BITMAP
0060
3060
3060
3040
FCC0
6000
6000
6000
6000
4000
C000
C000
C000
7000
ENDCHAR
STARTCHAR Tbar
ENCODING 358
SWIDTH 663 0
DWIDTH 13 0
BBX 12 14 3 0
BITMAP
FFF0
8610
8610
0600
0C00
0C00
3FC0
0C00
0C00
1800
1800
1800
1800
7E00
ENDCHAR
STARTCHAR tbar
ENCODING 359
SWIDTH 355 0
DWIDTH 7 0
BBX 8 13 1 0
BITMAP
18
18
18
7E
30
30
30
FF
20
60
60
60
38
ENDCHAR
STARTCHAR Utilde
ENCODING 360
SWIDTH 727 0
DWIDTH 14 0
BBX 13 17 3 0
BITMAP
0C80
1300
0000
FC78
7020
6020
6020
6020
6040
6040
C040
C040
C040
C080
C080
6100
3E00
ENDCHAR
STARTCHAR utilde
ENCODING 361
SWIDTH 630 0
DWIDTH 12 0
BBX 10 13 2 0
BITMAP
1900
2600
0000
F3C0
60C0
60C0
6080
6180
6180
4380
C580
C900
73C0
ENDCHAR
STARTCHAR Umacron
ENCODING 362
SWIDTH 727 0
DWIDTH 14 0
BBX 13 16 3 0
BITMAP
1F00
0000
FC78
7020
6020
6020
6020
6040
6040
C040
C040
C040
C080
C080
6100
3E00
ENDCHAR
STARTCHAR umacron
ENCODING 363
SWIDTH 630 0
DWIDTH 12 0
BBX 10 12 2 0
BITMAP
1F00
0000
F3C0
60C0
60C0
6080
6180
6180
4380
C580
C900
73C0
ENDCHAR
STARTCHAR Ubreve
ENCODING 364
SWIDTH 727 0
DWIDTH 14 0
BBX 13 18 3 0
BITMAP
1080
1B00
0E00
0000
FC78
7020
6020
6020
6020
6040
6040
C040
C040
C040
C080
C080
6100
3E00
ENDCHAR
STARTCHAR ubreve
ENCODING 365
SWIDTH 630 0
DWIDTH 12 0
BBX 10 14 2 0
BITMAP
1080
1B00
0E00
0000
F3C0
60C0
60C0
6080
6180
6180
4380
C580
C900
73C0
ENDCHAR
STARTCHAR Uring
ENCODING 366
SWIDTH 727 0
DWIDTH 14 0
BBX 13 18 3 0
BITMAP
0E00
0A00
0E00
0000
FC78
7020
6020
6020
6020
6040
6040
C040
C040
C040
C080
C080
6100
3E00
ENDCHAR
STARTCHAR uring
ENCODING 367
SWIDTH 630 0
DWIDTH 12 0
BBX 10 14 2 0
BITMAP
0E00
0A00
0E00
0000
F3C0
60C0
60C0
6080
6180
6180
4380
C580
C900
73C0
ENDCHAR
STARTCHAR Uhungarumlaut
ENCODING 368
SWIDTH 727 0
DWIDTH 14 0
BBX 13 18 3 0
BITMAP
03C0
0500
0A00
0000
FC78
7020
6020
6020
6020
6040
6040
C040
C040
C040
C080
C080
6100
3E00
ENDCHAR
STARTCHAR uhungarumlaut
ENCODING 369
SWIDTH 630 0
DWIDTH 12 0
BBX 10 14 2 0
BITMAP
0780
0A00
1400
0000
F3C0
60C0
60C0
6080
6180
6180
4380
C580
C900
73C0
ENDCHAR
STARTCHAR Uogonek
ENCODING 370
SWIDTH 727 0
DWIDTH 14 0
BBX 13 18 3 -4
BITMAP
FC78
7020
6020
6020
6020
6040
6040
C040
C040
C040
C080
C080
6100
3E00
0000
0C00
1000
1C00
ENDCHAR
STARTCHAR uogonek
ENCODING 371
SWIDTH 630 0
DWIDTH 12 0
BBX 10 14 2 -4
BITMAP
F3C0
60C0
60C0
6080
6180
6180
4380
C580
C900
73C0
0000
0C00
1000
1C00
ENDCHAR
STARTCHAR Wcircumflex
ENCODING 372
SWIDTH 878 0
DWIDTH 17 0
BBX 18 18 2 0
BITMAP
01C000
034000
042000
000000
F843C0
60C180
60C100
61C200
61C200
22C400
22C400
244800
344800
387000
387000
306000
306000
204000
ENDCHAR
STARTCHAR wcircumflex
ENCODING 373
SWIDTH 805 0
DWIDTH 15 0
BBX 15 14 1 0
BITMAP
01C0
0340
0420
0000
E086
3186
3186
33C4
12C8
16D8
14D0
18E0
18C0
10C0
ENDCHAR
STARTCHAR Ycircumflex
ENCODING 374
SWIDTH 663 0
DWIDTH 13 0
BBX 13 18 2 0
BITMAP
0700
0D00
1080
0000
F878
7030
3060
30C0
1880
1900
1E00
0C00
0C00
0C00
1800
1800
1800
7E00
ENDCHAR
STARTCHAR ycircumflex
ENCODING 375
SWIDTH 558 0
DWIDTH 11 0
BBX 12 18 0 -4
BITMAP
0700
0D00
1080
0000
7870
1830
1820
0820
0C40
0C80
0D00
0D00
0E00
0400
0800
1000
3000
E000
ENDCHAR
STARTCHAR Ydieresis
ENCODING 376
SWIDTH 663 0
DWIDTH 13 0
BBX 13 16 2 0
BITMAP
0CC0
0000
F878
7030
3060
30C0
1880
1900
1E00
0C00
0C00
0C00
1800
1800
1800
7E00
ENDCHAR
STARTCHAR Zacute
ENCODING 377
SWIDTH 633 0
DWIDTH 12 0
BBX 12 18 1 0
BITMAP
00E0
0180
0300
0000
1FF0
1060
30E0
00C0
0180
0300
0600
0600
0C00
1800
3000
7040
6040
FFC0
ENDCHAR
STARTCHAR zacute
ENCODING 378
SWIDTH 536 0
DWIDTH 10 0
BBX 10 14 1 0
BITMAP
0380
0600
0C00
0000
3FC0
2180
2300
0600
0C00
1C00
1800
3080
6180
FF80
ENDCHAR
STARTCHAR Zdotaccent
ENCODING 379
SWIDTH 633 0
DWIDTH 12 0
BBX 12 16 1 0
BITMAP
0300
0000
1FF0
1060
30E0
00C0
0180
0300
0600
0600
0C00
1800
3000
7040
6040
FFC0
ENDCHAR
STARTCHAR zdotaccent
ENCODING 380
SWIDTH 536 0
DWIDTH 10 0
BBX 10 12 1 0
BITMAP
0600
0000
3FC0
2180
2300
0600
0C00
1C00
1800
3080
6180
FF80
ENDCHAR
STARTCHAR Zcaron
ENCODING 381
SWIDTH 633 0
DWIDTH 12 0
BBX 12 18 1 0
BITMAP
0210
0160
01C0
0000
1FF0
1060
30E0
00C0
0180
0300
0600
0600
0C00
1800
3000
7040
6040
FFC0
ENDCHAR
STARTCHAR zcaron
ENCODING 382
SWIDTH 536 0
DWIDTH 10 0
BBX 11 14 1 0
BITMAP
0420
02C0
0380
0000
3FC0
2180
2300
0600
0C00
1C00
1800
3080
6180
FF80
ENDCHAR
STARTCHAR uni0186
ENCODING 390
SWIDTH 714 0
DWIDTH 14 0
BBX 13 14 2 0
BITMAP
0FC0
3070
0030
0018
0018
0018
0018
0018
0030
0030
C060
C0C0
C180
FE00
ENDCHAR
STARTCHAR uni0189
ENCODING 393
SWIDTH 770 0
DWIDTH 15 0
BBX 15 14 0 0
BITMAP
1FF0
0C1C
0C0C
0C06
0C06
1806
7F06
1806
180C
180C
3018
3038
3060
FF80
ENDCHAR
STARTCHAR uni018E
ENCODING 398
SWIDTH 569 0
DWIDTH 11 0
BBX 12 14 1 0
BITMAP
3FF0
20C0
20C0
00C0
0080
0180
1180
3F80
2180
0100
0300
C300
8300
FF80
ENDCHAR
STARTCHAR florin
ENCODING 402
SWIDTH 608 0
DWIDTH 12 0
BBX 9 18 3 -4
BITMAP
0780
0880
1880
1800
1000
3000
3000
FC00
3000
2000
6000
6000
6000
6000
6000
C000
C000
C000
ENDCHAR
STARTCHAR uni0197
ENCODING 407
SWIDTH 325 0
DWIDTH 6 0
BBX 8 14 1 0
BITMAP
1F
0C
0C
0C
08
18
FF
18
18
10
30
30
30
F8
ENDCHAR
STARTCHAR uni019A
ENCODING 410
SWIDTH 289 0
DWIDTH 5 0
BBX 8 14 1 0
BITMAP
3C
0C
08
18
18
18
FF
30
30
30
30
20
60
78
ENDCHAR
STARTCHAR uni019D
ENCODING 413
SWIDTH 762 0
DWIDTH 14 0
BBX 19 18 -3 -4
BITMAP
0381E0
018040
01C080
01C080
026080
027080
023080
021900
021900
020D00
060D00
060700
060600
040200
0C0000
8C0000
880000
F00000
ENDCHAR
STARTCHAR uni019F
ENCODING 415
SWIDTH 783 0
DWIDTH 15 0
BBX 13 14 2 0
BITMAP
03E0
0C30
1818
3018
6018
6018
FFF8
C018
C018
C030
C030
6060
71C0
1F00
ENDCHAR
STARTCHAR Ohorn
ENCODING 416
SWIDTH 783 0
DWIDTH 15 0
BBX 15 14 2 0
BITMAP
03E6
0C36
181E
301C
601C
6018
C018
C018
C018
C030
C030
6060
71C0
1F00
ENDCHAR
STARTCHAR ohorn
ENCODING 417
SWIDTH 560 0
DWIDTH 11 0
BBX 11 10 2 0
BITMAP
0F60
31E0
61E0
61C0
C1C0
C180
C180
C300
E600
7800
ENDCHAR
STARTCHAR Uhorn
ENCODING 431
SWIDTH 727 0
DWIDTH 14 0
BBX 15 14 3 0
BITMAP
FC7E
7026
6026
6024
602C
6040
6040
C040
C040
C040
C080
C080
6100
3E00
ENDCHAR
STARTCHAR uhorn
ENCODING 432
SWIDTH 630 0
DWIDTH 12 0
BBX 12 10 2 0
BITMAP
F3F0
60F0
60F0
60A0
61E0
6180
4380
C580
C900
73C0
ENDCHAR
STARTCHAR uni01B5
ENCODING 437
SWIDTH 633 0
DWIDTH 12 0
BBX 12 14 1 0
BITMAP
1FF0
1060
30E0
00C0
0180
0300
3FC0
0600
0C00
1800
3000
7040
6040
FFC0
ENDCHAR
STARTCHAR uni01B6
ENCODING 438
SWIDTH 536 0
DWIDTH 10 0
BBX 10 10 1 0
BITMAP
3FC0
2180
2300
0600
7F80
1C00
1800
3080
6180
FF80
ENDCHAR
STARTCHAR uni01BB
ENCODING 443
SWIDTH 608 0
DWIDTH 12 0
BBX 11 14 1 0
BITMAP
0F80
10E0
1060
0060
0060
00C0
FFE0
0300
0400
0800
3000
6000
4000
FF80
ENDCHAR
STARTCHAR uni01BC
ENCODING 444
SWIDTH 608 0
DWIDTH 12 0
BBX 10 14 2 0
BITMAP
1FC0
2000
2000
2000
2000
3C00
0700
0300
0180
0180
0100
8300
8600
FC00
ENDCHAR
STARTCHAR uni01C0
ENCODING 448
SWIDTH 241 0
DWIDTH 5 0
BBX 5 18 1 -4
BITMAP
08
18
10
10
10
10
30
20
20
20
20
60
40
40
40
40
C0
80
ENDCHAR
STARTCHAR uni01C2
ENCODING 450
SWIDTH 608 0
DWIDTH 12 0
BBX 12 18 1 -3
BITMAP
0080
0180
0100
0100
0100
0100
0300
7FF0
0200
0200
0200
FFE0
0400
0400
0400
0400
0C00
0800
ENDCHAR
STARTCHAR uni01C3
ENCODING 451
SWIDTH 265 0
DWIDTH 5 0
BBX 5 14 1 0
BITMAP
18
18
10
30
30
30
20
20
20
20
40
00
00
C0
ENDCHAR
STARTCHAR uni01CD
ENCODING 461
SWIDTH 747 0
DWIDTH 14 0
BBX 14 18 0 0
BITMAP
0210
0160
01C0
0000
0040
00C0
00E0
0160
0160
0260
0460
0430
0830
1FF0
2030
2030
6038
F07C
ENDCHAR
STARTCHAR uni01CE
ENCODING 462
SWIDTH 608 0
DWIDTH 12 0
BBX 10 14 2 0
BITMAP
0840
0580
0700
0000
0FC0
10C0
20C0
6080
6180
C180
C380
C580
C900
73C0
ENDCHAR
STARTCHAR uni01CF
ENCODING 463
SWIDTH 325 0
DWIDTH 6 0
BBX 8 18 1 0
BITMAP
21
16
1C
00
1F
0C
0C
0C
08
18
18
18
18
10
30
30
30
F8
ENDCHAR
STARTCHAR uni01D0
ENCODING 464
SWIDTH 289 0
DWIDTH 5 0
BBX 6 14 2 0
BITMAP
84
58
70
00
F0
30
20
60
60
60
60
40
C0
F0
ENDCHAR
STARTCHAR uni01D1
ENCODING 465
SWIDTH 783 0
DWIDTH 15 0
BBX 13 18 2 0
BITMAP
0420
02C0
0380
0000
03E0
0C30
1818
3018
6018
6018
C018
C018
C018
C030
C030
6060
71C0
1F00
ENDCHAR
STARTCHAR uni01D2
ENCODING 466
SWIDTH 560 0
DWIDTH 11 0
BBX 9 14 2 0
BITMAP
1080
0B00
0E00
0000
0F00
3180
6180
6180
C180
C180
C180
C300
E600
7800
ENDCHAR
STARTCHAR uni01D3
ENCODING 467
SWIDTH 727 0
DWIDTH 14 0
BBX 13 18 3 0
BITMAP
1080
0B00
0E00
0000
FC78
7020
6020
6020
6020
6040
6040
C040
C040
C040
C080
C080
6100
3E00
ENDCHAR
STARTCHAR uni01D4
ENCODING 468
SWIDTH 630 0
DWIDTH 12 0
BBX 10 14 2 0
BITMAP
1080
0B00
0E00
0000
F3C0
60C0
60C0
6080
6180
6180
4380
C580
C900
73C0
ENDCHAR
STARTCHAR uni01D5
ENCODING 469
SWIDTH 727 0
DWIDTH 14 0
BBX 13 18 3 0
BITMAP
0F80
0000
0CC0
0000
FC78
7020
6020
6020
6020
6040
6040
C040
C040
C040
C080
C080
6100
3E00
ENDCHAR
STARTCHAR uni01D6
ENCODING 470
SWIDTH 630 0
DWIDTH 12 0
BBX 10 14 2 0
BITMAP
1F00
0000
0CC0
0000
F3C0
60C0
60C0
6080
6180
6180
4380
C580
C900
73C0
ENDCHAR
STARTCHAR uni01D7
ENCODING 471
SWIDTH 727 0
DWIDTH 14 0
BBX 13 20 3 0
BITMAP
01C0
0300
0600
0000
0CC0
0000
FC78
7020
6020
6020
6020
6040
6040
C040
C040
C040
C080
C080
6100
3E00
ENDCHAR
STARTCHAR uni01D8
ENCODING 472
SWIDTH 630 0
DWIDTH 12 0
BBX 10 16 2 0
BITMAP
0380
0600
0C00
0000
0CC0
0000
F3C0
60C0
60C0
6080
6180
6180
4380
C580
C900
73C0
ENDCHAR
STARTCHAR uni01D9
ENCODING 473
SWIDTH 727 0
DWIDTH 14 0
BBX 13 20 3 0
BITMAP
1080
0B00
0E00
0000
0CC0
0000
FC78
7020
6020
6020
6020
6040
6040
C040
C040
C040
C080
C080
6100
3E00
ENDCHAR
STARTCHAR uni01DA
ENCODING 474
SWIDTH 630 0
DWIDTH 12 0
BBX 10 16 2 0
BITMAP
1080
0B00
0E00
0000
0CC0
0000
F3C0
60C0
60C0
6080
6180
6180
4380
C580
C900
73C0
ENDCHAR
STARTCHAR uni01DB
ENCODING 475
SWIDTH 727 0
DWIDTH 14 0
BBX 13 20 3 0
BITMAP
0C00
0400
0200
0000
0CC0
0000
FC78
7020
6020
6020
6020
6040
6040
C040
C040
C040
C080
C080
6100
3E00
ENDCHAR
STARTCHAR uni01DC
ENCODING 476
SWIDTH 630 0
DWIDTH 12 0
BBX 10 16 2 0
BITMAP
1800
0800
0400
0000
0CC0
0000
F3C0
60C0
60C0
6080
6180
6180
4380
C580
C900
73C0
ENDCHAR
STARTCHAR uni01DD
ENCODING 477
SWIDTH 518 0
DWIDTH 10 0
BBX 8 10 2 0
BITMAP
3E
C7
83
03
1F
63
C2
C6
CC
F0
ENDCHAR
STARTCHAR uni01DE
ENCODING 478
SWIDTH 747 0
DWIDTH 14 0
BBX 14 18 0 0
BITMAP
03E0
0000
0198
0000
0040
00C0
00E0
0160
0160
0260
0460
0430
0830
1FF0
2030
2030
6038
F07C
ENDCHAR
STARTCHAR uni01DF
ENCODING 479
SWIDTH 608 0
DWIDTH 12 0
BBX 10 14 2 0
BITMAP
0F80
0000
0CC0
0000
0FC0
10C0
20C0
6080
6180
C180
C380
C580
C900
73C0
ENDCHAR
STARTCHAR uni01E0
ENCODING 480
SWIDTH 747 0
DWIDTH 14 0
BBX 14 18 0 0
BITMAP
03E0
0000
00C0
0000
0040
00C0
00E0
0160
0160
0260
0460
0430
0830
1FF0
2030
2030
6038
F07C
ENDCHAR
STARTCHAR uni01E1
ENCODING 481
SWIDTH 608 0
DWIDTH 12 0
BBX 10 14 2 0
BITMAP
0F80
0000
0600
0000
0FC0
10C0
20C0
6080
6180
C180
C380
C580
C900
73C0
ENDCHAR
STARTCHAR uni01E2
ENCODING 482
SWIDTH 907 0
DWIDTH 17 0
BBX 19 16 0 0
BITMAP
003E00
000000
001FE0
003820
005860
009800
00B000
013080
023F80
043080
043000
0FE000
106000
206080
406080
F1FF80
ENDCHAR
STARTCHAR uni01E3
ENCODING 483
SWIDTH 881 0
DWIDTH 17 0
BBX 16 12 1 0
BITMAP
03E0
0000
0FDE
10E6
20C2
6086
418C
C3F0
C380
C581
C9C6
70F8
ENDCHAR
STARTCHAR uni01E4
ENCODING 484
SWIDTH 756 0
DWIDTH 14 0
BBX 15 14 2 0
BITMAP
03F8
0C18
1810
3000
6000
6000
C000
C000
C1F8
C060
C1FE
6060
70C0
1F80
ENDCHAR
STARTCHAR uni01E5
ENCODING 485
SWIDTH 602 0
DWIDTH 11 0
BBX 11 14 1 -4
BITMAP
07E0
0860
1060
3040
20C0
60C0
61C0
62C0
6580
3980
FFE0
8100
C200
7C00
ENDCHAR
STARTCHAR Gcaron
ENCODING 486
SWIDTH 756 0
DWIDTH 14 0
BBX 13 18 2 0
BITMAP
0420
02C0
0380
0000
03F8
0C18
1810
3000
6000
6000
C000
C000
C1F8
C060
C060
6060
70C0
1F80
ENDCHAR
STARTCHAR gcaron
ENCODING 487
SWIDTH 602 0
DWIDTH 11 0
BBX 11 18 1 -4
BITMAP
0840
0580
0700
0000
07E0
0860
1060
3040
20C0
60C0
61C0
62C0
6580
3980
0180
8100
C200
7C00
ENDCHAR
STARTCHAR uni01E8
ENCODING 488
SWIDTH 698 0
DWIDTH 13 0
BBX 14 18 1 0
BITMAP
0420
02C0
0380
0000
1F3C
0C18
0C20
0C40
0980
1B00
1E00
1F00
1B00
3180
31C0
30C0
3060
F9F0
ENDCHAR
STARTCHAR uni01E9
ENCODING 489
SWIDTH 560 0
DWIDTH 11 0
BBX 10 18 1 0
BITMAP
4200
2C00
3800
0000
7800
1800
1000
3000
30C0
3180
3300
6400
7800
6C00
6C00
4600
C300
C3C0
ENDCHAR
STARTCHAR uni01EA
ENCODING 490
SWIDTH 783 0
DWIDTH 15 0
BBX 13 18 2 -4
BITMAP
03E0
0C30
1818
3018
6018
6018
C018
C018
C018
C030
C030
6060
71C0
1F00
0000
0600
0800
0E00
ENDCHAR
STARTCHAR uni01EB
ENCODING 491
SWIDTH 560 0
DWIDTH 11 0
BBX 9 14 2 -4
BITMAP
0F00
3180
6180
6180
C180
C180
C180
C300
E600
7800
0000
1800
2000
3800
ENDCHAR
STARTCHAR uni01EC
ENCODING 492
SWIDTH 783 0
DWIDTH 15 0
BBX 13 20 2 -4
BITMAP
07C0
0000
03E0
0C30
1818
3018
6018
6018
C018
C018
C018
C030
C030
6060
71C0
1F00
0000
0600
0800
0E00
ENDCHAR
STARTCHAR uni01ED
ENCODING 493
SWIDTH 560 0
DWIDTH 11 0
BBX 9 16 2 -4
BITMAP
1F00
0000
0F00
3180
6180
6180
C180
C180
C180
C300
E600
7800
0000
1800
2000
3800
ENDCHAR
STARTCHAR uni01F0
ENCODING 496
SWIDTH 343 0
DWIDTH 7 0
BBX 9 18 0 -4
BITMAP
1080
0B00
0E00
0000
0700
0300
0300
0300
0200
0200
0600
0600
0600
0400
0C00
8C00
8800
F000
ENDCHAR
STARTCHAR uni01F4
ENCODING 500
SWIDTH 756 0
DWIDTH 14 0
BBX 13 18 2 0
BITMAP
00E0
0180
0300
0000
03F8
0C18
1810
3000
6000
6000
C000
C000
C1F8
C060
C060
6060
70C0
1F80
ENDCHAR
STARTCHAR uni01F5
ENCODING 501
SWIDTH 602 0
DWIDTH 11 0
BBX 11 18 1 -4
BITMAP
01C0
0300
0600
0000
07E0
0860
1060
3040
20C0
60C0
61C0
62C0
6580
3980
0180
8100
C200
7C00
ENDCHAR
STARTCHAR uni01F8
ENCODING 504
SWIDTH 762 0
DWIDTH 14 0
BBX 16 18 0 0
BITMAP
0300
0100
0080
0000
1C0F
0C02
0E04
0E04
1304
1384
1184
10C8
10C8
1068
2068
2038
2030
F010
ENDCHAR
STARTCHAR uni01F9
ENCODING 505
SWIDTH 631 0
DWIDTH 12 0
BBX 10 14 2 0
BITMAP
1800
0800
0400
0000
F380
24C0
68C0
7080
6180
6180
4180
C180
C180
C3C0
ENDCHAR
STARTCHAR Aringacute
ENCODING 506
SWIDTH 747 0
DWIDTH 14 0
BBX 14 22 0 0
BITMAP
0038
0060
00C0
0000
0070
0050
0070
0000
0040
00C0
00E0
0160
0160
0260
0460
0430
0830
1FF0
2030
2030
6038
F07C
ENDCHAR
STARTCHAR aringacute
ENCODING 507
SWIDTH 608 0
DWIDTH 12 0
BBX 10 18 2 0
BITMAP
01C0
0300
0600
0000
0380
0280
0380
0000
0FC0
10C0
20C0
6080
6180
C180
C380
C580
C900
73C0
ENDCHAR
STARTCHAR AEacute
ENCODING 508
SWIDTH 907 0
DWIDTH 17 0
BBX 19 18 0 0
BITMAP
000700
000C00
001800
000000
001FE0
003820
005860
009800
00B000
013080
023F80
043080
043000
0FE000
106000
206080
406080
F1FF80
ENDCHAR
STARTCHAR aeacute
ENCODING 509
SWIDTH 881 0
DWIDTH 17 0
BBX 16 14 1 0
BITMAP
0070
00C0
0180
0000
0FDE
10E6
20C2
6086
418C
C3F0
C380
C581
C9C6
70F8
ENDCHAR
STARTCHAR Oslashacute
ENCODING 510
SWIDTH 783 0
DWIDTH 15 0
BBX 16 18 1 0
BITMAP
0038
0060
00C0
0000
01F3
061C
0C0C
181C
3026
3046
7084
610C
620C
6408
7818
3030
5860
CF80
ENDCHAR
STARTCHAR oslashacute
ENCODING 511
SWIDTH 560 0
DWIDTH 11 0
BBX 11 14 1 0
BITMAP
01C0
0300
0600
0000
07A0
18C0
30C0
21C0
62C0
6CC0
7080
6180
7300
FC00
ENDCHAR
STARTCHAR Scommaaccent
ENCODING 536
SWIDTH 549 0
DWIDTH 10 0
BBX 11 22 1 -8
BITMAP
0FC0
1860
1040
3040
3000
1800
0E00
0700
0380
0180
C180
8180
C300
7E00
0000
0C00
0C00
0C00
0C00
0800
0800
1000
ENDCHAR
STARTCHAR scommaaccent
ENCODING 537
SWIDTH 440 0
DWIDTH 8 0
BBX 9 18 1 -8
BITMAP
0F00
3180
3100
3800
1C00
0E00
8600
8300
C600
7C00
0000
1800
1800
1800
1800
1000
1000
2000
ENDCHAR
STARTCHAR Tcommaaccent
ENCODING 538
SWIDTH 663 0
DWIDTH 13 0
BBX 12 22 3 -8
BITMAP
FFF0
8610
8610
0600
0C00
0C00
0C00
0C00
0C00
1800
1800
1800
1800
7E00
0000
0C00
0C00
0C00
0C00
0800
0800
1000
ENDCHAR
STARTCHAR tcommaaccent
ENCODING 539
SWIDTH 355 0
DWIDTH 7 0
BBX 6 21 2 -8
BITMAP
30
30
30
FC
60
60
60
60
40
C0
C0
C0
70
00
60
60
60
60
40
40
80
ENDCHAR
STARTCHAR uni021E
ENCODING 542
SWIDTH 776 0
DWIDTH 15 0
BBX 17 18 0 0
BITMAP
010800
00B000
00E000
000000
1F1F80
0E0600
0C0600
0C0600
0C0C00
180C00
1FFC00
180C00
180C00
181800
301800
301800
303800
FC7C00
ENDCHAR
STARTCHAR uni021F
ENCODING 543
SWIDTH 631 0
DWIDTH 12 0
BBX 10 18 2 0
BITMAP
4200
2C00
3800
0000
7800
1000
3000
3000
3380
24C0
28C0
7080
6180
6180
4180
4180
C180
C3C0
ENDCHAR
STARTCHAR uni0226
ENCODING 550
SWIDTH 747 0
DWIDTH 14 0
BBX 14 16 0 0
BITMAP
00C0
0000
0040
00C0
00E0
0160
0160
0260
0460
0430
0830
1FF0
2030
2030
6038
F07C
ENDCHAR
STARTCHAR uni0227
ENCODING 551
SWIDTH 608 0
DWIDTH 12 0
BBX 10 12 2 0
BITMAP
0600
0000
0FC0
10C0
20C0
6080
6180
C180
C380
C580
C900
73C0
ENDCHAR
STARTCHAR uni0228
ENCODING 552
SWIDTH 569 0
DWIDTH 11 0
BBX 12 18 1 -4
BITMAP
1FF0
0C10
0C30
0C00
0800
1840
1FC0
1880
1800
1000
3000
3040
3040
FFC0
0C00
0C00
0400
1C00
ENDCHAR
STARTCHAR uni0229
ENCODING 553
SWIDTH 518 0
DWIDTH 10 0
BBX 8 14 2 -4
BITMAP
0F
33
63
43
C6
F8
C0
C1
E3
7C
18
18
08
38
ENDCHAR
STARTCHAR uni022A
ENCODING 554
SWIDTH 783 0
DWIDTH 15 0
BBX 13 18 2 0
BITMAP
07C0
0000
0330
0000
03E0
0C30
1818
3018
6018
6018
C018
C018
C018
C030
C030
6060
71C0
1F00
ENDCHAR
STARTCHAR uni022B
ENCODING 555
SWIDTH 560 0
DWIDTH 11 0
BBX 10 14 2 0
BITMAP
1F00
0000
0CC0
0000
0F00
3180
6180
6180
C180
C180
C180
C300
E600
7800
ENDCHAR
STARTCHAR uni022C
ENCODING 556
SWIDTH 783 0
DWIDTH 15 0
BBX 13 19 2 0
BITMAP
07C0
0000
0190
0260
0000
03E0
0C30
1818
3018
6018
6018
C018
C018
C018
C030
C030
6060
71C0
1F00
ENDCHAR
STARTCHAR uni022D
ENCODING 557
SWIDTH 560 0
DWIDTH 11 0
BBX 10 15 2 0
BITMAP
0F80
0000
0640
0980
0000
0F00
3180
6180
6180
C180
C180
C180
C300
E600
7800
ENDCHAR
STARTCHAR uni022E
ENCODING 558
SWIDTH 783 0
DWIDTH 15 0
BBX 13 16 2 0
BITMAP
0180
0000
03E0
0C30
1818
3018
6018
6018
C018
C018
C018
C030
C030
6060
71C0
1F00
ENDCHAR
STARTCHAR uni022F
ENCODING 559
SWIDTH 560 0
DWIDTH 11 0
BBX 9 12 2 0
BITMAP
0C00
0000
0F00
3180
6180
6180
C180
C180
C180
C300
E600
7800
ENDCHAR
STARTCHAR uni0230
ENCODING 560
SWIDTH 783 0
DWIDTH 15 0
BBX 13 18 2 0
BITMAP
07C0
0000
0180
0000
03E0
0C30
1818
3018
6018
6018
C018
C018
C018
C030
C030
6060
71C0
1F00
ENDCHAR
STARTCHAR uni0231
ENCODING 561
SWIDTH 560 0
DWIDTH 11 0
BBX 9 14 2 0
BITMAP
1F00
0000
0C00
0000
0F00
3180
6180
6180
C180
C180
C180
C300
E600
7800
ENDCHAR
STARTCHAR uni0232
ENCODING 562
SWIDTH 663 0
DWIDTH 13 0
BBX 13 16 2 0
BITMAP
0F80
0000
F878
7030
3060
30C0
1880
1900
1E00
0C00
0C00
0C00
1800
1800
1800
7E00
ENDCHAR
STARTCHAR uni0233
ENCODING 563
SWIDTH 558 0
DWIDTH 11 0
BBX 12 16 0 -4
BITMAP
0F80
0000
7870
1830
1820
0820
0C40
0C80
0D00
0D00
0E00
0400
0800
1000
3000
E000
ENDCHAR
STARTCHAR uni0250
ENCODING 592
SWIDTH 608 0
DWIDTH 12 0
BBX 10 10 2 0
BITMAP
F380
24C0
68C0
70C0
60C0
6180
4180
C100
C200
FC00
ENDCHAR
STARTCHAR uni0259
ENCODING 601
SWIDTH 518 0
DWIDTH 10 0
BBX 8 10 2 0
BITMAP
3E
C7
83
03
1F
63
C2
C6
CC
F0
ENDCHAR
STARTCHAR uni025F
ENCODING 607
SWIDTH 380 0
DWIDTH 7 0
BBX 9 19 2 -9
BITMAP
0180
0180
0180
0100
0300
0300
0300
0300
0200
0600
0600
0600
0600
3F00
0C00
0C00
8800
8800
F000
ENDCHAR
STARTCHAR uni0265
ENCODING 613
SWIDTH 631 0
DWIDTH 12 0
BBX 10 14 2 -4
BITMAP
F0C0
60C0
6080
6080
6180
6180
4380
C500
C900
7300
0300
0300
0200
0780
ENDCHAR
STARTCHAR uni0275
ENCODING 629
SWIDTH 560 0
DWIDTH 11 0
BBX 9 10 2 0
BITMAP
0F00
3180
6180
6180
FF80
C180
C180
C300
E600
7800
ENDCHAR
STARTCHAR uni0279
ENCODING 633
SWIDTH 470 0
DWIDTH 9 0
BBX 9 10 2 0
BITMAP
0180
0180
0100
0300
0300
0700
0F00
1E00
7600
C780
ENDCHAR
STARTCHAR uni0287
ENCODING 647
SWIDTH 355 0
DWIDTH 7 0
BBX 6 13 2 0
BITMAP
38
0C
0C
0C
08
18
18
18
18
FC
30
30
30
ENDCHAR
STARTCHAR uni0289
ENCODING 649
SWIDTH 630 0
DWIDTH 12 0
BBX 10 10 2 0
BITMAP
F3C0
60C0
60C0
6080
FFC0
6180
4380
C580
C900
73C0
ENDCHAR
STARTCHAR uni028C
ENCODING 652
SWIDTH 558 0
DWIDTH 11 0
BBX 11 10 1 0
BITMAP
0300
0700
0F00
0B00
1300
2300
6300
C180
C180
E1E0
ENDCHAR
STARTCHAR uni028D
ENCODING 653
SWIDTH 805 0
DWIDTH 15 0
BBX 15 10 1 0
BITMAP
0610
0630
0E30
1650
36D0
2690
4798
C318
C318
C20E
ENDCHAR
STARTCHAR uni028E
ENCODING 654
SWIDTH 558 0
DWIDTH 11 0
BBX 12 14 0 0
BITMAP
0070
00C0
0080
0100
0200
0700
0B00
0B00
1300
2300
4100
4180
C180
E1E0
ENDCHAR
STARTCHAR uni029E
ENCODING 670
SWIDTH 560 0
DWIDTH 11 0
BBX 10 14 1 -4
BITMAP
F0C0
30C0
1880
0D80
0D80
0780
0980
3300
6300
C300
0300
0200
0600
0780
ENDCHAR
STARTCHAR uni02BB
ENCODING 699
SWIDTH 265 0
DWIDTH 5 0
BBX 3 5 3 9
BITMAP
60
40
C0
E0
C0
ENDCHAR
STARTCHAR afii57929
ENCODING 700
SWIDTH 265 0
DWIDTH 5 0
BBX 3 5 3 9
BITMAP
60
60
60
40
C0
ENDCHAR
STARTCHAR afii64937
ENCODING 701
SWIDTH 265 0
DWIDTH 5 0
BBX 3 5 3 9
BITMAP
C0
C0
C0
40
60
ENDCHAR
STARTCHAR circumflex
ENCODING 710
SWIDTH 560 0
DWIDTH 11 0
BBX 6 3 5 11
BITMAP
38
68
84
ENDCHAR
STARTCHAR caron
ENCODING 711
SWIDTH 560 0
DWIDTH 11 0
BBX 6 3 6 11
BITMAP
84
58
70
ENDCHAR
STARTCHAR uni02C8
ENCODING 712
SWIDTH 231 0
DWIDTH 4 0
BBX 2 5 3 9
BITMAP
C0
C0
C0
40
40
ENDCHAR
STARTCHAR macron
ENCODING 713
SWIDTH 560 0
DWIDTH 11 0
BBX 5 1 6 13
BITMAP
F8
ENDCHAR
STARTCHAR uni02CA
ENCODING 714
SWIDTH 560 0
DWIDTH 11 0
BBX 5 3 6 11
BITMAP
38
60
C0
ENDCHAR
STARTCHAR uni02CB
ENCODING 715
SWIDTH 560 0
DWIDTH 11 0
BBX 3 3 6 11
BITMAP
C0
40
20
ENDCHAR
STARTCHAR uni02CD
ENCODING 717
SWIDTH 560 0
DWIDTH 11 0
BBX 5 1 6 -2
BITMAP
F8
ENDCHAR
STARTCHAR uni02CE
ENCODING 718
SWIDTH 560 0
DWIDTH 11 0
BBX 3 3 6 -4
BITMAP
C0
40
20
ENDCHAR
STARTCHAR uni02CF
ENCODING 719
SWIDTH 560 0
DWIDTH 11 0
BBX 5 3 6 -4
BITMAP
38
60
C0
ENDCHAR
STARTCHAR breve
ENCODING 728
SWIDTH 560 0
DWIDTH 11 0
BBX 6 3 6 11
BITMAP
84
D8
70
ENDCHAR
STARTCHAR dotaccent
ENCODING 729
SWIDTH 560 0
DWIDTH 11 0
BBX 2 1 7 13
BITMAP
C0
ENDCHAR
STARTCHAR ring
ENCODING 730
SWIDTH 560 0
DWIDTH 11 0
BBX 3 3 7 12
BITMAP
E0
A0
E0
ENDCHAR
STARTCHAR ogonek
ENCODING 731
SWIDTH 560 0
DWIDTH 11 0
BBX 3 3 3 -4
BITMAP
60
80
E0
ENDCHAR
STARTCHAR tilde
ENCODING 732
SWIDTH 560 0
DWIDTH 11 0
BBX 6 2 5 12
BITMAP
64
98
ENDCHAR
STARTCHAR hungarumlaut
ENCODING 733
SWIDTH 560 0
DWIDTH 11 0
BBX 6 3 6 11
BITMAP
3C
50
A0
ENDCHAR
STARTCHAR uni02EE
ENCODING 750
SWIDTH 457 0
DWIDTH 9 0
BBX 7 5 3 9
BITMAP
66
6E
64
44
C8
ENDCHAR
STARTCHAR uni037E
ENCODING 894
SWIDTH 265 0
DWIDTH 5 0
BBX 5 14 1 -4
BITMAP
18
38
00
00
00
00
00
00
60
60
60
60
40
C0
ENDCHAR
STARTCHAR tonos
ENCODING 900
SWIDTH 560 0
DWIDTH 11 0
BBX 5 3 6 11
BITMAP
38
60
C0
ENDCHAR
STARTCHAR dieresistonos
ENCODING 901
SWIDTH 560 0
DWIDTH 11 0
BBX 7 5 5 13
BITMAP
0E
18
30
00
CC
ENDCHAR
STARTCHAR anoteleia
ENCODING 903
SWIDTH 608 0
DWIDTH 12 0
BBX 2 1 6 6
BITMAP
C0
ENDCHAR
STARTCHAR mu
ENCODING 956
SWIDTH 663 0
DWIDTH 13 0
BBX 11 14 2 -4
BITMAP
71E0
3060
3040
30C0
30C0
20C0
61C0
6280
6780
7DE0
4000
C000
C000
C000
ENDCHAR
STARTCHAR uni1E00
ENCODING 7680
SWIDTH 747 0
DWIDTH 14 0
BBX 14 18 0 -4
BITMAP
0040
00C0
00E0
0160
0160
0260
0460
0430
0830
1FF0
2030
2030
6038
F07C
0000
0380
0280
0380
ENDCHAR
STARTCHAR uni1E01
ENCODING 7681
SWIDTH 608 0
DWIDTH 12 0
BBX 10 14 2 -4
BITMAP
0FC0
10C0
20C0
6080
6180
C180
C380
C580
C900
73C0
0000
1C00
1400
1C00
ENDCHAR
STARTCHAR uni1E02
ENCODING 7682
SWIDTH 606 0
DWIDTH 12 0
BBX 12 16 0 0
BITMAP
0300
0000
1FE0
0C30
0C30
0C30
0C20
08E0
1F80
18C0
1860
1860
3060
3060
30C0
FF80
ENDCHAR
STARTCHAR uni1E03
ENCODING 7683
SWIDTH 596 0
DWIDTH 11 0
BBX 10 16 2 0
BITMAP
1800
0000
7800
1000
3000
3000
3380
34C0
28C0
70C0
70C0
6080
4180
4100
C200
FC00
ENDCHAR
STARTCHAR uni1E04
ENCODING 7684
SWIDTH 606 0
DWIDTH 12 0
BBX 12 16 0 -2
BITMAP
1FE0
0C30
0C30
0C30
0C20
08E0
1F80
18C0
1860
1860
3060
3060
30C0
FF80
0000
0600
ENDCHAR
STARTCHAR uni1E05
ENCODING 7685
SWIDTH 596 0
DWIDTH 11 0
BBX 10 16 2 -2
BITMAP
7800
1000
3000
3000
3380
34C0
28C0
70C0
70C0
6080
4180
4100
C200
FC00
0000
1800
ENDCHAR
STARTCHAR uni1E06
ENCODING 7686
SWIDTH 606 0
DWIDTH 12 0
BBX 12 16 0 -2
BITMAP
1FE0
0C30
0C30
0C30
0C20
08E0
1F80
18C0
1860
1860
3060
3060
30C0
FF80
0000
1F00
ENDCHAR
STARTCHAR uni1E07
ENCODING 7687
SWIDTH 596 0
DWIDTH 11 0
BBX 10 16 2 -2
BITMAP
7800
1000
3000
3000
3380
34C0
28C0
70C0
70C0
6080
4180
4100
C200
FC00
0000
3E00
ENDCHAR
STARTCHAR uni1E08
ENCODING 7688
SWIDTH 714 0
DWIDTH 14 0
BBX 13 22 2 -4
BITMAP
00E0
0180
0300
0000
03F8
0C18
1818
3018
6000
6000
C000
C000
C000
C000
C000
6000
7060
1F80
0800
0C00
0400
1C00
ENDCHAR
STARTCHAR uni1E09
ENCODING 7689
SWIDTH 487 0
DWIDTH 9 0
BBX 9 18 2 -4
BITMAP
0380
0600
0C00
0000
0F80
1100
2100
4000
C000
C000
C000
C000
C200
7C00
2000
3000
1000
7000
ENDCHAR
STARTCHAR uni1E0A
ENCODING 7690
SWIDTH 770 0
DWIDTH 15 0
BBX 15 16 0 0
BITMAP
0180
0000
1FF0
0C1C
0C0C
0C06
0C06
1806
1806
1806
180C
180C
3018
3038
3060
FF80
ENDCHAR
STARTCHAR uni1E0B
ENCODING 7691
SWIDTH 608 0
DWIDTH 12 0
BBX 11 16 2 0
BITMAP
0180
0000
01E0
0060
0040
00C0
0FC0
10C0
20C0
6080
6180
C180
C380
C580
C900
73C0
ENDCHAR
STARTCHAR uni1E0C
ENCODING 7692
SWIDTH 770 0
DWIDTH 15 0
BBX 15 16 0 -2
BITMAP
1FF0
0C1C
0C0C
0C06
0C06
1806
1806
1806
180C
180C
3018
3038
3060
FF80
0000
0300
ENDCHAR
STARTCHAR uni1E0D
ENCODING 7693
SWIDTH 608 0
DWIDTH 12 0
BBX 11 16 2 -2
BITMAP
01E0
0060
0040
00C0
0FC0
10C0
20C0
6080
6180
C180
C380
C580
C900
73C0
0000
0C00
ENDCHAR
STARTCHAR uni1E0E
ENCODING 7694
SWIDTH 770 0
DWIDTH 15 0
BBX 15 16 0 -2
BITMAP
1FF0
0C1C
0C0C
0C06
0C06
1806
1806
1806
180C
180C
3018
3038
3060
FF80
0000
0F80
ENDCHAR
STARTCHAR uni1E0F
ENCODING 7695
SWIDTH 608 0
DWIDTH 12 0
BBX 11 16 2 -2
BITMAP
01E0
0060
0040
00C0
0FC0
10C0
20C0
6080
6180
C180
C380
C580
C900
73C0
0000
1F00
ENDCHAR
STARTCHAR uni1E10
ENCODING 7696
SWIDTH 770 0
DWIDTH 15 0
BBX 15 18 0 -4
BITMAP
1FF0
0C1C
0C0C
0C06
0C06
1806
1806
1806
180C
180C
3018
3038
3060
FF80
0300
0300
0100
0700
ENDCHAR
STARTCHAR uni1E11
ENCODING 7697
SWIDTH 608 0
DWIDTH 12 0
BBX 11 18 2 -4
BITMAP
01E0
0060
0040
00C0
0FC0
10C0
20C0
6080
6180
C180
C380
C580
C900
73C0
0C00
0C00
0400
1C00
ENDCHAR
STARTCHAR uni1E12
ENCODING 7698
SWIDTH 770 0
DWIDTH 15 0
BBX 15 18 0 -4
BITMAP
1FF0
0C1C
0C0C
0C06
0C06
1806
1806
1806
180C
180C
3018
3038
3060
FF80
0000
0700
0D00
1080
ENDCHAR
STARTCHAR uni1E13
ENCODING 7699
SWIDTH 608 0
DWIDTH 12 0
BBX 11 18 2 -4
BITMAP
01E0
0060
0040
00C0
0FC0
10C0
20C0
6080
6180
C180
C380
C580
C900
73C0
0000
0E00
1A00
2100
ENDCHAR
STARTCHAR uni1E14
ENCODING 7700
SWIDTH 569 0
DWIDTH 11 0
BBX 12 20 1 0
BITMAP
0600
0200
0100
0000
0F80
0000
1FF0
0C10
0C30
0C00
0800
1840
1FC0
1880
1800
1000
3000
3040
3040
FFC0
ENDCHAR
STARTCHAR uni1E15
ENCODING 7701
SWIDTH 518 0
DWIDTH 10 0
BBX 8 16 2 0
BITMAP
18
08
04
00
3E
00
0F
33
63
43
C6
F8
C0
C1
E3
7C
ENDCHAR
STARTCHAR uni1E16
ENCODING 7702
SWIDTH 569 0
DWIDTH 11 0
BBX 12 20 1 0
BITMAP
01C0
0300
0600
0000
0F80
0000
1FF0
0C10
0C30
0C00
0800
1840
1FC0
1880
1800
1000
3000
3040
3040
FFC0
ENDCHAR
STARTCHAR uni1E17
ENCODING 7703
SWIDTH 518 0
DWIDTH 10 0
BBX 8 16 2 0
BITMAP
07
0C
18
00
3E
00
0F
33
63
43
C6
F8
C0
C1
E3
7C
ENDCHAR
STARTCHAR uni1E18
ENCODING 7704
SWIDTH 569 0
DWIDTH 11 0
BBX 12 18 1 -4
BITMAP
1FF0
0C10
0C30
0C00
0800
1840
1FC0
1880
1800
1000
3000
3040
3040
FFC0
0000
0E00
1A00
2100
ENDCHAR
STARTCHAR uni1E19
ENCODING 7705
SWIDTH 518 0
DWIDTH 10 0
BBX 8 14 2 -4
BITMAP
0F
33
63
43
C6
F8
C0
C1
E3
7C
00
38
68
84
ENDCHAR
STARTCHAR uni1E1A
ENCODING 7706
SWIDTH 569 0
DWIDTH 11 0
BBX 12 17 1 -3
BITMAP
1FF0
0C10
0C30
0C00
0800
1840
1FC0
1880
1800
1000
3000
3040
3040
FFC0
0000
1900
2600
ENDCHAR
STARTCHAR uni1E1B
ENCODING 7707
SWIDTH 518 0
DWIDTH 10 0
BBX 8 13 2 -3
BITMAP
0F
33
63
43
C6
F8
C0
C1
E3
7C
00
32
4C
ENDCHAR
STARTCHAR uni1E1C
ENCODING 7708
SWIDTH 569 0
DWIDTH 11 0
BBX 12 22 1 -4
BITMAP
0840
0D80
0700
0000
1FF0
0C10
0C30
0C00
0800
1840
1FC0
1880
1800
1000
3000
3040
3040
FFC0
0C00
0C00
0400
1C00
ENDCHAR
STARTCHAR uni1E1D
ENCODING 7709
SWIDTH 518 0
DWIDTH 10 0
BBX 8 18 2 -4
BITMAP
21
36
1C
00
0F
33
63
43
C6
F8
C0
C1
E3
7C
18
18
08
38
ENDCHAR
STARTCHAR uni1E1E
ENCODING 7710
SWIDTH 551 0
DWIDTH 10 0
BBX 12 16 1 0
BITMAP
0300
0000
1FF0
0C10
0C30
0C00
0800
1840
1F80
1880
1800
1000
3000
3000
3000
FC00
ENDCHAR
STARTCHAR uni1E1F
ENCODING 7711
SWIDTH 380 0
DWIDTH 7 0
BBX 9 21 2 -4
BITMAP
0C00
0000
0780
0880
0880
1800
1800
7E00
3000
3000
3000
3000
2000
6000
6000
6000
6000
4000
C000
C000
C000
ENDCHAR
STARTCHAR uni1E20
ENCODING 7712
SWIDTH 756 0
DWIDTH 14 0
BBX 13 16 2 0
BITMAP
07C0
0000
03F8
0C18
1810
3000
6000
6000
C000
C000
C1F8
C060
C060
6060
70C0
1F80
ENDCHAR
STARTCHAR uni1E21
ENCODING 7713
SWIDTH 602 0
DWIDTH 11 0
BBX 11 16 1 -4
BITMAP
0F80
0000
07E0
0860
1060
3040
20C0
60C0
61C0
62C0
6580
3980
0180
8100
C200
7C00
ENDCHAR
STARTCHAR uni1E22
ENCODING 7714
SWIDTH 776 0
DWIDTH 15 0
BBX 17 16 0 0
BITMAP
00C000
000000
1F1F80
0E0600
0C0600
0C0600
0C0C00
180C00
1FFC00
180C00
180C00
181800
301800
301800
303800
FC7C00
ENDCHAR
STARTCHAR uni1E23
ENCODING 7715
SWIDTH 631 0
DWIDTH 12 0
BBX 10 16 2 0
BITMAP
1800
0000
7800
1000
3000
3000
3380
24C0
28C0
7080
6180
6180
4180
4180
C180
C3C0
ENDCHAR
STARTCHAR uni1E24
ENCODING 7716
SWIDTH 776 0
DWIDTH 15 0
BBX 17 16 0 -2
BITMAP
1F1F80
0E0600
0C0600
0C0600
0C0C00
180C00
1FFC00
180C00
180C00
181800
301800
301800
303800
FC7C00
000000
018000
ENDCHAR
STARTCHAR uni1E25
ENCODING 7717
SWIDTH 631 0
DWIDTH 12 0
BBX 10 16 2 -2
BITMAP
7800
1000
3000
3000
3380
24C0
28C0
7080
6180
6180
4180
4180
C180
C3C0
0000
0C00
ENDCHAR
STARTCHAR uni1E26
ENCODING 7718
SWIDTH 776 0
DWIDTH 15 0
BBX 17 16 0 0
BITMAP
033000
000000
1F1F80
0E0600
0C0600
0C0600
0C0C00
180C00
1FFC00
180C00
180C00
181800
301800
301800
303800
FC7C00
ENDCHAR
STARTCHAR uni1E27
ENCODING 7719
SWIDTH 631 0
DWIDTH 12 0
BBX 10 16 2 0
BITMAP
6600
0000
7800
1000
3000
3000
3380
24C0
28C0
7080
6180
6180
4180
4180
C180
C3C0
ENDCHAR
STARTCHAR uni1E28
ENCODING 7720
SWIDTH 776 0
DWIDTH 15 0
BBX 17 18 0 -4
BITMAP
1F1F80
0E0600
0C0600
0C0600
0C0C00
180C00
1FFC00
180C00
180C00
181800
301800
301800
303800
FC7C00
018000
018000
008000
038000
ENDCHAR
STARTCHAR uni1E29
ENCODING 7721
SWIDTH 631 0
DWIDTH 12 0
BBX 10 18 2 -4
BITMAP
7800
1000
3000
3000
3380
24C0
28C0
7080
6180
6180
4180
4180
C180
C3C0
0C00
0C00
0400
1C00
ENDCHAR
STARTCHAR uni1E2A
ENCODING 7722
SWIDTH 776 0
DWIDTH 15 0
BBX 17 18 0 -4
BITMAP
1F1F80
0E0600
0C0600
0C0600
0C0C00
180C00
1FFC00
180C00
180C00
181800
301800
301800
303800
FC7C00
000000
042000
06C000
038000
ENDCHAR
STARTCHAR uni1E2B
ENCODING 7723
SWIDTH 631 0
DWIDTH 12 0
BBX 10 18 2 -4
BITMAP
7800
1000
3000
3000
3380
24C0
28C0
7080
6180
6180
4180
4180
C180
C3C0
0000
2100
3600
1C00
ENDCHAR
STARTCHAR uni1E2C
ENCODING 7724
SWIDTH 325 0
DWIDTH 6 0
BBX 8 17 1 -3
BITMAP
1F
0C
0C
0C
08
18
18
18
18
10
30
30
30
F8
00
64
98
ENDCHAR
STARTCHAR uni1E2D
ENCODING 7725
SWIDTH 289 0
DWIDTH 5 0
BBX 6 17 1 -3
BITMAP
0C
00
00
00
78
18
18
10
30
30
30
20
60
78
00
64
98
ENDCHAR
STARTCHAR uni1E2E
ENCODING 7726
SWIDTH 325 0
DWIDTH 6 0
BBX 9 20 1 0
BITMAP
0380
0600
0C00
0000
1980
0000
1F00
0C00
0C00
0C00
0800
1800
1800
1800
1800
1000
3000
3000
3000
F800
ENDCHAR
STARTCHAR uni1E2F
ENCODING 7727
SWIDTH 289 0
DWIDTH 5 0
BBX 7 16 2 0
BITMAP
0E
18
30
00
66
00
F0
30
20
60
60
60
60
40
C0
F0
ENDCHAR
STARTCHAR uni1E30
ENCODING 7728
SWIDTH 698 0
DWIDTH 13 0
BBX 14 18 1 0
BITMAP
00E0
0180
0300
0000
1F3C
0C18
0C20
0C40
0980
1B00
1E00
1F00
1B00
3180
31C0
30C0
3060
F9F0
ENDCHAR
STARTCHAR uni1E31
ENCODING 7729
SWIDTH 560 0
DWIDTH 11 0
BBX 10 18 1 0
BITMAP
0E00
1800
3000
0000
7800
1800
1000
3000
30C0
3180
3300
6400
7800
6C00
6C00
4600
C300
C3C0
ENDCHAR
STARTCHAR uni1E32
ENCODING 7730
SWIDTH 698 0
DWIDTH 13 0
BBX 14 16 1 -2
BITMAP
1F3C
0C18
0C20
0C40
0980
1B00
1E00
1F00
1B00
3180
31C0
30C0
3060
F9F0
0000
0600
ENDCHAR
STARTCHAR uni1E33
ENCODING 7731
SWIDTH 560 0
DWIDTH 11 0
BBX 10 16 1 -2
BITMAP
7800
1800
1000
3000
30C0
3180
3300
6400
7800
6C00
6C00
4600
C300
C3C0
0000
0C00
ENDCHAR
STARTCHAR uni1E34
ENCODING 7732
SWIDTH 698 0
DWIDTH 13 0
BBX 14 16 1 -2
BITMAP
1F3C
0C18
0C20
0C40
0980
1B00
1E00
1F00
1B00
3180
31C0
30C0
3060
F9F0
0000
0F80
ENDCHAR
STARTCHAR uni1E35
ENCODING 7733
SWIDTH 560 0
DWIDTH 11 0
BBX 10 16 1 -2
BITMAP
7800
1800
1000
3000
30C0
3180
3300
6400
7800
6C00
6C00
4600
C300
C3C0
0000
3E00
ENDCHAR
STARTCHAR uni1E36
ENCODING 7734
SWIDTH 572 0
DWIDTH 11 0
BBX 11 16 0 -2
BITMAP
1F00
0E00
0C00
0C00
0C00
0C00
1800
1800
1800
1800
3000
3020
3060
FFE0
0000
0C00
ENDCHAR
STARTCHAR uni1E37
ENCODING 7735
SWIDTH 289 0
DWIDTH 5 0
BBX 5 16 2 -2
BITMAP
78
18
10
30
30
30
30
60
60
60
60
40
C0
F0
00
60
ENDCHAR
STARTCHAR uni1E38
ENCODING 7736
SWIDTH 572 0
DWIDTH 11 0
BBX 11 18 0 -2
BITMAP
1F00
0000
1F00
0E00
0C00
0C00
0C00
0C00
1800
1800
1800
1800
3000
3020
3060
FFE0
0000
0C00
ENDCHAR
STARTCHAR uni1E39
ENCODING 7737
SWIDTH 289 0
DWIDTH 5 0
BBX 5 18 2 -2
BITMAP
F8
00
78
18
10
30
30
30
30
60
60
60
60
40
C0
F0
00
60
ENDCHAR
STARTCHAR uni1E3A
ENCODING 7738
SWIDTH 572 0
DWIDTH 11 0
BBX 11 16 0 -2
BITMAP
1F00
0E00
0C00
0C00
0C00
0C00
1800
1800
1800
1800
3000
3020
3060
FFE0
0000
1F00
ENDCHAR
STARTCHAR uni1E3B
ENCODING 7739
SWIDTH 289 0
DWIDTH 5 0
BBX 6 16 1 -2
BITMAP
3C
0C
08
18
18
18
18
30
30
30
30
20
60
78
00
F8
ENDCHAR
STARTCHAR uni1E3C
ENCODING 7740
SWIDTH 572 0
DWIDTH 11 0
BBX 11 18 0 -4
BITMAP
1F00
0E00
0C00
0C00
0C00
0C00
1800
1800
1800
1800
3000
3020
3060
FFE0
0000
0E00
1A00
2100
ENDCHAR
STARTCHAR uni1E3D
ENCODING 7741
SWIDTH 289 0
DWIDTH 5 0
BBX 6 18 1 -4
BITMAP
3C
0C
08
18
18
18
18
30
30
30
30
20
60
78
00
38
68
84
ENDCHAR
STARTCHAR uni1E3E
ENCODING 7742
SWIDTH 865 0
DWIDTH 16 0
BBX 18 18 1 0
BITMAP
003800
006000
00C000
000000
1C03C0
0E0700
0E0700
0E0B00
0E0A00
121600
133600
132600
134600
114400
218C00
210C00
200C00
F03E00
ENDCHAR
STARTCHAR uni1E3F
ENCODING 7743
SWIDTH 944 0
DWIDTH 18 0
BBX 16 14 2 0
BITMAP
00E0
0180
0300
0000
F38E
34D3
68A3
71E2
71C6
6186
6186
C186
C306
C30F
ENDCHAR
STARTCHAR uni1E40
ENCODING 7744
SWIDTH 865 0
DWIDTH 16 0
BBX 18 16 1 0
BITMAP
006000
000000
1C03C0
0E0700
0E0700
0E0B00
0E0A00
121600
133600
132600
134600
114400
218C00
210C00
200C00
F03E00
ENDCHAR
STARTCHAR uni1E41
ENCODING 7745
SWIDTH 944 0
DWIDTH 18 0
BBX 16 12 2 0
BITMAP
0180
0000
F38E
34D3
68A3
71E2
71C6
6186
6186
C186
C306
C30F
ENDCHAR
STARTCHAR uni1E42
ENCODING 7746
SWIDTH 865 0
DWIDTH 16 0
BBX 18 16 1 -2
BITMAP
1C03C0
0E0700
0E0700
0E0B00
0E0A00
121600
133600
132600
134600
114400
218C00
210C00
200C00
F03E00
000000
00C000
ENDCHAR
STARTCHAR uni1E43
ENCODING 7747
SWIDTH 944 0
DWIDTH 18 0
BBX 16 12 2 -2
BITMAP
F38E
34D3
68A3
71E2
71C6
6186
6186
C186
C306
C30F
0000
0180
ENDCHAR
STARTCHAR uni1E44
ENCODING 7748
SWIDTH 762 0
DWIDTH 14 0
BBX 16 16 0 0
BITMAP
0180
0000
1C0F
0C02
0E04
0E04
1304
1384
1184
10C8
10C8
1068
2068
2038
2030
F010
ENDCHAR
STARTCHAR uni1E45
ENCODING 7749
SWIDTH 631 0
DWIDTH 12 0
BBX 10 12 2 0
BITMAP
0C00
0000
F380
24C0
68C0
7080
6180
6180
4180
C180
C180
C3C0
ENDCHAR
STARTCHAR uni1E46
ENCODING 7750
SWIDTH 762 0
DWIDTH 14 0
BBX 16 16 0 -2
BITMAP
1C0F
0C02
0E04
0E04
1304
1384
1184
10C8
10C8
1068
2068
2038
2030
F010
0000
0180
ENDCHAR
STARTCHAR uni1E47
ENCODING 7751
SWIDTH 631 0
DWIDTH 12 0
BBX 10 12 2 -2
BITMAP
F380
24C0
68C0
7080
6180
6180
4180
C180
C180
C3C0
0000
0C00
ENDCHAR
STARTCHAR uni1E48
ENCODING 7752
SWIDTH 762 0
DWIDTH 14 0
BBX 16 16 0 -2
BITMAP
1C0F
0C02
0E04
0E04
1304
1384
1184
10C8
10C8
1068
2068
2038
2030
F010
0000
07C0
ENDCHAR
STARTCHAR uni1E49
ENCODING 7753
SWIDTH 631 0
DWIDTH 12 0
BBX 10 12 2 -2
BITMAP
F380
24C0
68C0
7080
6180
6180
4180
C180
C180
C3C0
0000
1F00
ENDCHAR
STARTCHAR uni1E4A
ENCODING 7754
SWIDTH 762 0
DWIDTH 14 0
BBX 16 18 0 -4
BITMAP
1C0F
0C02
0E04
0E04
1304
1384
1184
10C8
10C8
1068
2068
2038
2030
F010
0000
0380
0680
0840
ENDCHAR
STARTCHAR uni1E4B
ENCODING 7755
SWIDTH 631 0
DWIDTH 12 0
BBX 10 14 2 -4
BITMAP
F380
24C0
68C0
7080
6180
6180
4180
C180
C180
C3C0
0000
0E00
1A00
2100
ENDCHAR
STARTCHAR uni1E4C
ENCODING 7756
SWIDTH 783 0
DWIDTH 15 0
BBX 13 21 2 0
BITMAP
00E0
0180
0300
0000
0190
0260
0000
03E0
0C30
1818
3018
6018
6018
C018
C018
C018
C030
C030
6060
71C0
1F00
ENDCHAR
STARTCHAR uni1E4D
ENCODING 7757
SWIDTH 560 0
DWIDTH 11 0
BBX 10 17 2 0
BITMAP
01C0
0300
0600
0000
0640
0980
0000
0F00
3180
6180
6180
C180
C180
C180
C300
E600
7800
ENDCHAR
STARTCHAR uni1E4E
ENCODING 7758
SWIDTH 783 0
DWIDTH 15 0
BBX 13 19 2 0
BITMAP
0660
0000
0190
0260
0000
03E0
0C30
1818
3018
6018
6018
C018
C018
C018
C030
C030
6060
71C0
1F00
ENDCHAR
STARTCHAR uni1E4F
ENCODING 7759
SWIDTH 560 0
DWIDTH 11 0
BBX 10 15 2 0
BITMAP
1980
0000
0640
0980
0000
0F00
3180
6180
6180
C180
C180
C180
C300
E600
7800
ENDCHAR
STARTCHAR uni1E50
ENCODING 7760
SWIDTH 783 0
DWIDTH 15 0
BBX 13 20 2 0
BITMAP
0600
0200
0100
0000
07C0
0000
03E0
0C30
1818
3018
6018
6018
C018
C018
C018
C030
C030
6060
71C0
1F00
ENDCHAR
STARTCHAR uni1E51
ENCODING 7761
SWIDTH 560 0
DWIDTH 11 0
BBX 9 16 2 0
BITMAP
1800
0800
0400
0000
1F00
0000
0F00
3180
6180
6180
C180
C180
C180
C300
E600
7800
ENDCHAR
STARTCHAR uni1E52
ENCODING 7762
SWIDTH 783 0
DWIDTH 15 0
BBX 13 20 2 0
BITMAP
00E0
0180
0300
0000
07C0
0000
03E0
0C30
1818
3018
6018
6018
C018
C018
C018
C030
C030
6060
71C0
1F00
ENDCHAR
STARTCHAR uni1E53
ENCODING 7763
SWIDTH 560 0
DWIDTH 11 0
BBX 9 16 2 0
BITMAP
0380
0600
0C00
0000
1F00
0000
0F00
3180
6180
6180
C180
C180
C180
C300
E600
7800
ENDCHAR
STARTCHAR uni1E54
ENCODING 7764
SWIDTH 579 0
DWIDTH 11 0
BBX 12 18 1 0
BITMAP
00E0
0180
0300
0000
1FE0
0C30
0C30
0C30
0830
1860
18C0
1F80
1800
3000
3000
3000
3000
FC00
ENDCHAR
STARTCHAR uni1E55
ENCODING 7765
SWIDTH 608 0
DWIDTH 12 0
BBX 11 18 1 -4
BITMAP
0380
0600
0C00
0000
79C0
3260
3460
3860
3060
30C0
60C0
6080
6100
7E00
4000
C000
C000
C000
ENDCHAR
STARTCHAR uni1E56
ENCODING 7766
SWIDTH 579 0
DWIDTH 11 0
BBX 12 16 1 0
BITMAP
0300
0000
1FE0
0C30
0C30
0C30
0830
1860
18C0
1F80
1800
3000
3000
3000
3000
FC00
ENDCHAR
STARTCHAR uni1E57
ENCODING 7767
SWIDTH 608 0
DWIDTH 12 0
BBX 11 16 1 -4
BITMAP
0600
0000
79C0
3260
3460
3860
3060
30C0
60C0
6080
6100
7E00
4000
C000
C000
C000
ENDCHAR
STARTCHAR uni1E58
ENCODING 7768
SWIDTH 686 0
DWIDTH 13 0
BBX 13 16 0 0
BITMAP
0180
0000
1FF0
0C30
0C38
0C30
0C30
0C20
18C0
1F80
1980
18C0
30C0
3060
3060
FC38
ENDCHAR
STARTCHAR uni1E59
ENCODING 7769
SWIDTH 470 0
DWIDTH 9 0
BBX 9 12 2 0
BITMAP
1800
0000
F180
3700
3C00
7800
7000
6000
6000
4000
C000
C000
ENDCHAR
STARTCHAR uni1E5A
ENCODING 7770
SWIDTH 686 0
DWIDTH 13 0
BBX 13 16 0 -2
BITMAP
1FF0
0C30
0C38
0C30
0C30
0C20
18C0
1F80
1980
18C0
30C0
3060
3060
FC38
0000
0600
ENDCHAR
STARTCHAR uni1E5B
ENCODING 7771
SWIDTH 470 0
DWIDTH 9 0
BBX 9 12 2 -2
BITMAP
F180
3700
3C00
7800
7000
6000
6000
4000
C000
C000
0000
6000
ENDCHAR
STARTCHAR uni1E5C
ENCODING 7772
SWIDTH 686 0
DWIDTH 13 0
BBX 13 18 0 -2
BITMAP
07C0
0000
1FF0
0C30
0C38
0C30
0C30
0C20
18C0
1F80
1980
18C0
30C0
3060
3060
FC38
0000
0600
ENDCHAR
STARTCHAR uni1E5D
ENCODING 7773
SWIDTH 470 0
DWIDTH 9 0
BBX 9 14 2 -2
BITMAP
3E00
0000
F180
3700
3C00
7800
7000
6000
6000
4000
C000
C000
0000
6000
ENDCHAR
STARTCHAR uni1E5E
ENCODING 7774
SWIDTH 686 0
DWIDTH 13 0
BBX 13 16 0 -2
BITMAP
1FF0
0C30
0C38
0C30
0C30
0C20
18C0
1F80
1980
18C0
30C0
3060
3060
FC38
0000
0F80
ENDCHAR
STARTCHAR uni1E5F
ENCODING 7775
SWIDTH 470 0
DWIDTH 9 0
BBX 9 12 2 -2
BITMAP
F180
3700
3C00
7800
7000
6000
6000
4000
C000
C000
0000
F800
ENDCHAR
STARTCHAR uni1E60
ENCODING 7776
SWIDTH 549 0
DWIDTH 10 0
BBX 11 16 1 0
BITMAP
0600
0000
0FC0
1860
1040
3040
3000
1800
0E00
0700
0380
0180
C180
8180
C300
7E00
ENDCHAR
STARTCHAR uni1E61
ENCODING 7777
SWIDTH 440 0
DWIDTH 8 0
BBX 9 12 1 0
BITMAP
0C00
0000
0F00
3180
3100
3800
1C00
0E00
8600
8300
C600
7C00
ENDCHAR
STARTCHAR uni1E62
ENCODING 7778
SWIDTH 549 0
DWIDTH 10 0
BBX 11 16 1 -2
BITMAP
0FC0
1860
1040
3040
3000
1800
0E00
0700
0380
0180
C180
8180
C300
7E00
0000
0C00
ENDCHAR
STARTCHAR uni1E63
ENCODING 7779
SWIDTH 440 0
DWIDTH 8 0
BBX 9 12 1 -2
BITMAP
0F00
3180
3100
3800
1C00
0E00
8600
8300
C600
7C00
0000
1800
ENDCHAR
STARTCHAR uni1E64
ENCODING 7780
SWIDTH 549 0
DWIDTH 10 0
BBX 11 20 1 0
BITMAP
0300
0000
01C0
0300
0600
0000
0FC0
1860
1040
3040
3000
1800
0E00
0700
0380
0180
C180
8180
C300
7E00
ENDCHAR
STARTCHAR uni1E65
ENCODING 7781
SWIDTH 440 0
DWIDTH 8 0
BBX 9 16 1 0
BITMAP
0600
0000
0380
0600
0C00
0000
0F00
3180
3100
3800
1C00
0E00
8600
8300
C600
7C00
ENDCHAR
STARTCHAR uni1E66
ENCODING 7782
SWIDTH 549 0
DWIDTH 10 0
BBX 11 20 1 0
BITMAP
0300
0000
0420
02C0
0380
0000
0FC0
1860
1040
3040
3000
1800
0E00
0700
0380
0180
C180
8180
C300
7E00
ENDCHAR
STARTCHAR uni1E67
ENCODING 7783
SWIDTH 440 0
DWIDTH 8 0
BBX 10 16 1 0
BITMAP
0600
0000
0840
0580
0700
0000
0F00
3180
3100
3800
1C00
0E00
8600
8300
C600
7C00
ENDCHAR
STARTCHAR uni1E68
ENCODING 7784
SWIDTH 549 0
DWIDTH 10 0
BBX 11 18 1 -2
BITMAP
0600
0000
0FC0
1860
1040
3040
3000
1800
0E00
0700
0380
0180
C180
8180
C300
7E00
0000
0C00
ENDCHAR
STARTCHAR uni1E69
ENCODING 7785
SWIDTH 440 0
DWIDTH 8 0
BBX 9 14 1 -2
BITMAP
0C00
0000
0F00
3180
3100
3800
1C00
0E00
8600
8300
C600
7C00
0000
1800
ENDCHAR
STARTCHAR uni1E6A
ENCODING 7786
SWIDTH 663 0
DWIDTH 13 0
BBX 12 16 3 0
BITMAP
0600
0000
FFF0
8610
8610
0600
0C00
0C00
0C00
0C00
0C00
1800
1800
1800
1800
7E00
ENDCHAR
STARTCHAR uni1E6B
ENCODING 7787
SWIDTH 355 0
DWIDTH 7 0
BBX 6 15 2 0
BITMAP
30
00
30
30
30
FC
60
60
60
60
40
C0
C0
C0
70
ENDCHAR
STARTCHAR uni1E6C
ENCODING 7788
SWIDTH 663 0
DWIDTH 13 0
BBX 12 16 3 -2
BITMAP
FFF0
8610
8610
0600
0C00
0C00
0C00
0C00
0C00
1800
1800
1800
1800
7E00
0000
0C00
ENDCHAR
STARTCHAR uni1E6D
ENCODING 7789
SWIDTH 355 0
DWIDTH 7 0
BBX 6 15 2 -2
BITMAP
30
30
30
FC
60
60
60
60
40
C0
C0
C0
70
00
60
ENDCHAR
STARTCHAR uni1E6E
ENCODING 7790
SWIDTH 663 0
DWIDTH 13 0
BBX 12 16 3 -2
BITMAP
FFF0
8610
8610
0600
0C00
0C00
0C00
0C00
0C00
1800
1800
1800
1800
7E00
0000
3E00
ENDCHAR
STARTCHAR uni1E6F
ENCODING 7791
SWIDTH 355 0
DWIDTH 7 0
BBX 6 15 2 -2
BITMAP
30
30
30
FC
60
60
60
60
40
C0
C0
C0
70
00
F8
ENDCHAR
STARTCHAR uni1E70
ENCODING 7792
SWIDTH 663 0
DWIDTH 13 0
BBX 12 18 3 -4
BITMAP
FFF0
8610
8610
0600
0C00
0C00
0C00
0C00
0C00
1800
1800
1800
1800
7E00
0000
1C00
3400
4200
ENDCHAR
STARTCHAR uni1E71
ENCODING 7793
SWIDTH 355 0
DWIDTH 7 0
BBX 7 17 1 -4
BITMAP
18
18
18
7E
30
30
30
30
20
60
60
60
38
00
38
68
84
ENDCHAR
STARTCHAR uni1E72
ENCODING 7794
SWIDTH 727 0
DWIDTH 14 0
BBX 13 16 3 -2
BITMAP
FC78
7020
6020
6020
6020
6040
6040
C040
C040
C040
C080
C080
6100
3E00
0000
3300
ENDCHAR
STARTCHAR uni1E73
ENCODING 7795
SWIDTH 630 0
DWIDTH 12 0
BBX 10 12 2 -2
BITMAP
F3C0
60C0
60C0
6080
6180
6180
4380
C580
C900
73C0
0000
3300
ENDCHAR
STARTCHAR uni1E74
ENCODING 7796
SWIDTH 727 0
DWIDTH 14 0
BBX 13 17 3 -3
BITMAP
FC78
7020
6020
6020
6020
6040
6040
C040
C040
C040
C080
C080
6100
3E00
0000
1900
2600
ENDCHAR
STARTCHAR uni1E75
ENCODING 7797
SWIDTH 630 0
DWIDTH 12 0
BBX 10 13 2 -3
BITMAP
F3C0
60C0
60C0
6080
6180
6180
4380
C580
C900
73C0
0000
1900
2600
ENDCHAR
STARTCHAR uni1E76
ENCODING 7798
SWIDTH 727 0
DWIDTH 14 0
BBX 13 18 3 -4
BITMAP
FC78
7020
6020
6020
6020
6040
6040
C040
C040
C040
C080
C080
6100
3E00
0000
1C00
3400
4200
ENDCHAR
STARTCHAR uni1E77
ENCODING 7799
SWIDTH 630 0
DWIDTH 12 0
BBX 10 14 2 -4
BITMAP
F3C0
60C0
60C0
6080
6180
6180
4380
C580
C900
73C0
0000
0E00
1A00
2100
ENDCHAR
STARTCHAR uni1E78
ENCODING 7800
SWIDTH 727 0
DWIDTH 14 0
BBX 13 21 3 0
BITMAP
01C0
0300
0600
0000
0C80
1300
0000
FC78
7020
6020
6020
6020
6040
6040
C040
C040
C040
C080
C080
6100
3E00
ENDCHAR
STARTCHAR uni1E79
ENCODING 7801
SWIDTH 630 0
DWIDTH 12 0
BBX 10 17 2 0
BITMAP
0380
0600
0C00
0000
1900
2600
0000
F3C0
60C0
60C0
6080
6180
6180
4380
C580
C900
73C0
ENDCHAR
STARTCHAR uni1E7A
ENCODING 7802
SWIDTH 727 0
DWIDTH 14 0
BBX 13 18 3 0
BITMAP
1980
0000
1F00
0000
FC78
7020
6020
6020
6020
6040
6040
C040
C040
C040
C080
C080
6100
3E00
ENDCHAR
STARTCHAR uni1E7B
ENCODING 7803
SWIDTH 630 0
DWIDTH 12 0
BBX 10 14 2 0
BITMAP
3300
0000
1F00
0000
F3C0
60C0
60C0
6080
6180
6180
4380
C580
C900
73C0
ENDCHAR
STARTCHAR uni1E7C
ENCODING 7804
SWIDTH 656 0
DWIDTH 12 0
BBX 14 17 2 0
BITMAP
0C80
1300
0000
F83C
6008
6010
3020
3020
3040
30C0
3080
1900
1B00
1A00
1C00
1C00
0800
ENDCHAR
STARTCHAR uni1E7D
ENCODING 7805
SWIDTH 558 0
DWIDTH 11 0
BBX 11 13 1 0
BITMAP
0C80
1300
0000
F0E0
3060
3060
18C0
1880
1900
1A00
1E00
1C00
1800
ENDCHAR
STARTCHAR uni1E7E
ENCODING 7806
SWIDTH 656 0
DWIDTH 12 0
BBX 14 16 2 -2
BITMAP
F83C
6008
6010
3020
3020
3040
30C0
3080
1900
1B00
1A00
1C00
1C00
0800
0000
0C00
ENDCHAR
STARTCHAR uni1E7F
ENCODING 7807
SWIDTH 558 0
DWIDTH 11 0
BBX 11 12 1 -2
BITMAP
F0E0
3060
3060
18C0
1880
1900
1A00
1E00
1C00
1800
0000
0C00
ENDCHAR
STARTCHAR Wgrave
ENCODING 7808
SWIDTH 878 0
DWIDTH 17 0
BBX 18 18 2 0
BITMAP
030000
010000
008000
000000
F843C0
60C180
60C100
61C200
61C200
22C400
22C400
244800
344800
387000
387000
306000
306000
204000
ENDCHAR
STARTCHAR wgrave
ENCODING 7809
SWIDTH 805 0
DWIDTH 15 0
BBX 15 14 1 0
BITMAP
0300
0100
0080
0000
E086
3186
3186
33C4
12C8
16D8
14D0
18E0
18C0
10C0
ENDCHAR
STARTCHAR Wacute
ENCODING 7810
SWIDTH 878 0
DWIDTH 17 0
BBX 18 18 2 0
BITMAP
007000
00C000
018000
000000
F843C0
60C180
60C100
61C200
61C200
22C400
22C400
244800
344800
387000
387000
306000
306000
204000
ENDCHAR
STARTCHAR wacute
ENCODING 7811
SWIDTH 805 0
DWIDTH 15 0
BBX 15 14 1 0
BITMAP
00E0
0180
0300
0000
E086
3186
3186
33C4
12C8
16D8
14D0
18E0
18C0
10C0
ENDCHAR
STARTCHAR Wdieresis
ENCODING 7812
SWIDTH 878 0
DWIDTH 17 0
BBX 18 16 2 0
BITMAP
066000
000000
F843C0
60C180
60C100
61C200
61C200
22C400
22C400
244800
344800
387000
387000
306000
306000
204000
ENDCHAR
STARTCHAR wdieresis
ENCODING 7813
SWIDTH 805 0
DWIDTH 15 0
BBX 15 12 1 0
BITMAP
0660
0000
E086
3186
3186
33C4
12C8
16D8
14D0
18E0
18C0
10C0
ENDCHAR
STARTCHAR uni1E86
ENCODING 7814
SWIDTH 878 0
DWIDTH 17 0
BBX 18 16 2 0
BITMAP
018000
000000
F843C0
60C180
60C100
61C200
61C200
22C400
22C400
244800
344800
387000
387000
306000
306000
204000
ENDCHAR
STARTCHAR uni1E87
ENCODING 7815
SWIDTH 805 0
DWIDTH 15 0
BBX 15 12 1 0
BITMAP
0180
0000
E086
3186
3186
33C4
12C8
16D8
14D0
18E0
18C0
10C0
ENDCHAR
STARTCHAR uni1E88
ENCODING 7816
SWIDTH 878 0
DWIDTH 17 0
BBX 18 16 2 -2
BITMAP
F843C0
60C180
60C100
61C200
61C200
22C400
22C400
244800
344800
387000
387000
306000
306000
204000
000000
030000
ENDCHAR
STARTCHAR uni1E89
ENCODING 7817
SWIDTH 805 0
DWIDTH 15 0
BBX 15 12 1 -2
BITMAP
E086
3186
3186
33C4
12C8
16D8
14D0
18E0
18C0
10C0
0000
0300
ENDCHAR
STARTCHAR uni1E8A
ENCODING 7818
SWIDTH 624 0
DWIDTH 12 0
BBX 15 16 0 0
BITMAP
0180
0000
1F1E
0E0C
0618
0630
0360
03C0
0180
0380
02C0
04C0
0860
1060
2070
F0F8
ENDCHAR
STARTCHAR uni1E8B
ENCODING 7819
SWIDTH 510 0
DWIDTH 10 0
BBX 10 12 1 0
BITMAP
0C00
0000
70C0
38C0
1980
0F00
0C00
1E00
3600
6300
C300
C1C0
ENDCHAR
STARTCHAR uni1E8C
ENCODING 7820
SWIDTH 624 0
DWIDTH 12 0
BBX 15 16 0 0
BITMAP
0660
0000
1F1E
0E0C
0618
0630
0360
03C0
0180
0380
02C0
04C0
0860
1060
2070
F0F8
ENDCHAR
STARTCHAR uni1E8D
ENCODING 7821
SWIDTH 510 0
DWIDTH 10 0
BBX 10 12 1 0
BITMAP
3300
0000
70C0
38C0
1980
0F00
0C00
1E00
3600
6300
C300
C1C0
ENDCHAR
STARTCHAR uni1E8E
ENCODING 7822
SWIDTH 663 0
DWIDTH 13 0
BBX 13 16 2 0
BITMAP
0600
0000
F878
7030
3060
30C0
1880
1900
1E00
0C00
0C00
0C00
1800
1800
1800
7E00
ENDCHAR
STARTCHAR uni1E8F
ENCODING 7823
SWIDTH 558 0
DWIDTH 11 0
BBX 12 16 0 -4
BITMAP
0600
0000
7870
1830
1820
0820
0C40
0C80
0D00
0D00
0E00
0400
0800
1000
3000
E000
ENDCHAR
STARTCHAR uni1E90
ENCODING 7824
SWIDTH 633 0
DWIDTH 12 0
BBX 12 18 1 0
BITMAP
0380
0680
0840
0000
1FF0
1060
30E0
00C0
0180
0300
0600
0600
0C00
1800
3000
7040
6040
FFC0
ENDCHAR
STARTCHAR uni1E91
ENCODING 7825
SWIDTH 536 0
DWIDTH 10 0
BBX 10 14 1 0
BITMAP
0700
0D00
1080
0000
3FC0
2180
2300
0600
0C00
1C00
1800
3080
6180
FF80
ENDCHAR
STARTCHAR uni1E92
ENCODING 7826
SWIDTH 633 0
DWIDTH 12 0
BBX 12 16 1 -2
BITMAP
1FF0
1060
30E0
00C0
0180
0300
0600
0600
0C00
1800
3000
7040
6040
FFC0
0000
0C00
ENDCHAR
STARTCHAR uni1E93
ENCODING 7827
SWIDTH 536 0
DWIDTH 10 0
BBX 10 12 1 -2
BITMAP
3FC0
2180
2300
0600
0C00
1C00
1800
3080
6180
FF80
0000
0C00
ENDCHAR
STARTCHAR uni1E94
ENCODING 7828
SWIDTH 633 0
DWIDTH 12 0
BBX 12 16 1 -2
BITMAP
1FF0
1060
30E0
00C0
0180
0300
0600
0600
0C00
1800
3000
7040
6040
FFC0
0000
1F00
ENDCHAR
STARTCHAR uni1E95
ENCODING 7829
SWIDTH 536 0
DWIDTH 10 0
BBX 10 12 1 -2
BITMAP
3FC0
2180
2300
0600
0C00
1C00
1800
3080
6180
FF80
0000
3E00
ENDCHAR
STARTCHAR uni1E96
ENCODING 7830
SWIDTH 631 0
DWIDTH 12 0
BBX 10 16 2 -2
BITMAP
7800
1000
3000
3000
3380
24C0
28C0
7080
6180
6180
4180
4180
C180
C3C0
0000
1F00
ENDCHAR
STARTCHAR uni1E97
ENCODING 7831
SWIDTH 355 0
DWIDTH 7 0
BBX 6 15 2 0
BITMAP
CC
00
30
30
30
FC
60
60
60
60
40
C0
C0
C0
70
ENDCHAR
STARTCHAR uni1E98
ENCODING 7832
SWIDTH 805 0
DWIDTH 15 0
BBX 15 14 1 0
BITMAP
0380
0280
0380
0000
E086
3186
3186
33C4
12C8
16D8
14D0
18E0
18C0
10C0
ENDCHAR
STARTCHAR uni1E99
ENCODING 7833
SWIDTH 558 0
DWIDTH 11 0
BBX 12 18 0 -4
BITMAP
0700
0500
0700
0000
7870
1830
1820
0820
0C40
0C80
0D00
0D00
0E00
0400
0800
1000
3000
E000
ENDCHAR
STARTCHAR uni1EA0
ENCODING 7840
SWIDTH 747 0
DWIDTH 14 0
BBX 14 16 0 -2
BITMAP
0040
00C0
00E0
0160
0160
0260
0460
0430
0830
1FF0
2030
2030
6038
F07C
0000
0300
ENDCHAR
STARTCHAR uni1EA1
ENCODING 7841
SWIDTH 608 0
DWIDTH 12 0
BBX 10 12 2 -2
BITMAP
0FC0
10C0
20C0
6080
6180
C180
C380
C580
C900
73C0
0000
0C00
ENDCHAR
STARTCHAR uni1EA4
ENCODING 7844
SWIDTH 747 0
DWIDTH 14 0
BBX 14 22 0 0
BITMAP
0038
0060
00C0
0000
0070
00D0
0108
0000
0040
00C0
00E0
0160
0160
0260
0460
0430
0830
1FF0
2030
2030
6038
F07C
ENDCHAR
STARTCHAR uni1EA5
ENCODING 7845
SWIDTH 608 0
DWIDTH 12 0
BBX 10 18 2 0
BITMAP
01C0
0300
0600
0000
0380
0680
0840
0000
0FC0
10C0
20C0
6080
6180
C180
C380
C580
C900
73C0
ENDCHAR
STARTCHAR uni1EA6
ENCODING 7846
SWIDTH 747 0
DWIDTH 14 0
BBX 14 22 0 0
BITMAP
0180
0080
0040
0000
0070
00D0
0108
0000
0040
00C0
00E0
0160
0160
0260
0460
0430
0830
1FF0
2030
2030
6038
F07C
ENDCHAR
STARTCHAR uni1EA7
ENCODING 7847
SWIDTH 608 0
DWIDTH 12 0
BBX 10 18 2 0
BITMAP
0C00
0400
0200
0000
0380
0680
0840
0000
0FC0
10C0
20C0
6080
6180
C180
C380
C580
C900
73C0
ENDCHAR
STARTCHAR uni1EAA
ENCODING 7850
SWIDTH 747 0
DWIDTH 14 0
BBX 14 21 0 0
BITMAP
0190
0260
0000
0070
00D0
0108
0000
0040
00C0
00E0
0160
0160
0260
0460
0430
0830
1FF0
2030
2030
6038
F07C
ENDCHAR
STARTCHAR uni1EAB
ENCODING 7851
SWIDTH 608 0
DWIDTH 12 0
BBX 10 17 2 0
BITMAP
0640
0980
0000
0380
0680
0840
0000
0FC0
10C0
20C0
6080
6180
C180
C380
C580
C900
73C0
ENDCHAR
STARTCHAR uni1EAC
ENCODING 7852
SWIDTH 747 0
DWIDTH 14 0
BBX 14 20 0 -2
BITMAP
00E0
01A0
0210
0000
0040
00C0
00E0
0160
0160
0260
0460
0430
0830
1FF0
2030
2030
6038
F07C
0000
0300
ENDCHAR
STARTCHAR uni1EAD
ENCODING 7853
SWIDTH 608 0
DWIDTH 12 0
BBX 10 16 2 -2
BITMAP
0700
0D00
1080
0000
0FC0
10C0
20C0
6080
6180
C180
C380
C580
C900
73C0
0000
0C00
ENDCHAR
STARTCHAR uni1EAE
ENCODING 7854
SWIDTH 747 0
DWIDTH 14 0
BBX 14 22 0 0
BITMAP
0070
00C0
0180
0000
0210
0360
01C0
0000
0040
00C0
00E0
0160
0160
0260
0460
0430
0830
1FF0
2030
2030
6038
F07C
ENDCHAR
STARTCHAR uni1EAF
ENCODING 7855
SWIDTH 608 0
DWIDTH 12 0
BBX 10 18 2 0
BITMAP
01C0
0300
0600
0000
0840
0D80
0700
0000
0FC0
10C0
20C0
6080
6180
C180
C380
C580
C900
73C0
ENDCHAR
STARTCHAR uni1EB0
ENCODING 7856
SWIDTH 747 0
DWIDTH 14 0
BBX 14 22 0 0
BITMAP
0300
0100
0080
0000
0210
0360
01C0
0000
0040
00C0
00E0
0160
0160
0260
0460
0430
0830
1FF0
2030
2030
6038
F07C
ENDCHAR
STARTCHAR uni1EB1
ENCODING 7857
SWIDTH 608 0
DWIDTH 12 0
BBX 10 18 2 0
BITMAP
0C00
0400
0200
0000
0840
0D80
0700
0000
0FC0
10C0
20C0
6080
6180
C180
C380
C580
C900
73C0
ENDCHAR
STARTCHAR uni1EB4
ENCODING 7860
SWIDTH 747 0
DWIDTH 14 0
BBX 14 21 0 0
BITMAP
0320
04C0
0000
0210
0360
01C0
0000
0040
00C0
00E0
0160
0160
0260
0460
0430
0830
1FF0
2030
2030
6038
F07C
ENDCHAR
STARTCHAR uni1EB5
ENCODING 7861
SWIDTH 608 0
DWIDTH 12 0
BBX 10 17 2 0
BITMAP
0C80
1300
0000
0840
0D80
0700
0000
0FC0
10C0
20C0
6080
6180
C180
C380
C580
C900
73C0
ENDCHAR
STARTCHAR uni1EB6
ENCODING 7862
SWIDTH 747 0
DWIDTH 14 0
BBX 14 20 0 -2
BITMAP
0210
0360
01C0
0000
0040
00C0
00E0
0160
0160
0260
0460
0430
0830
1FF0
2030
2030
6038
F07C
0000
0300
ENDCHAR
STARTCHAR uni1EB7
ENCODING 7863
SWIDTH 608 0
DWIDTH 12 0
BBX 10 16 2 -2
BITMAP
1080
1B00
0E00
0000
0FC0
10C0
20C0
6080
6180
C180
C380
C580
C900
73C0
0000
0C00
ENDCHAR
STARTCHAR uni1EB8
ENCODING 7864
SWIDTH 569 0
DWIDTH 11 0
BBX 12 16 1 -2
BITMAP
1FF0
0C10
0C30
0C00
0800
1840
1FC0
1880
1800
1000
3000
3040
3040
FFC0
0000
0C00
ENDCHAR
STARTCHAR uni1EB9
ENCODING 7865
SWIDTH 518 0
DWIDTH 10 0
BBX 8 12 2 -2
BITMAP
0F
33
63
43
C6
F8
C0
C1
E3
7C
00
18
ENDCHAR
STARTCHAR uni1EBC
ENCODING 7868
SWIDTH 569 0
DWIDTH 11 0
BBX 12 17 1 0
BITMAP
0640
0980
0000
1FF0
0C10
0C30
0C00
0800
1840
1FC0
1880
1800
1000
3000
3040
3040
FFC0
ENDCHAR
STARTCHAR uni1EBD
ENCODING 7869
SWIDTH 518 0
DWIDTH 10 0
BBX 8 13 2 0
BITMAP
19
26
00
0F
33
63
43
C6
F8
C0
C1
E3
7C
ENDCHAR
STARTCHAR uni1EBE
ENCODING 7870
SWIDTH 569 0
DWIDTH 11 0
BBX 12 22 1 0
BITMAP
00E0
0180
0300
0000
01C0
0340
0420
0000
1FF0
0C10
0C30
0C00
0800
1840
1FC0
1880
1800
1000
3000
3040
3040
FFC0
ENDCHAR
STARTCHAR uni1EBF
ENCODING 7871
SWIDTH 518 0
DWIDTH 10 0
BBX 9 18 2 0
BITMAP
0380
0600
0C00
0000
0700
0D00
1080
0000
0F00
3300
6300
4300
C600
F800
C000
C100
E300
7C00
ENDCHAR
STARTCHAR uni1EC0
ENCODING 7872
SWIDTH 569 0
DWIDTH 11 0
BBX 12 22 1 0
BITMAP
0600
0200
0100
0000
01C0
0340
0420
0000
1FF0
0C10
0C30
0C00
0800
1840
1FC0
1880
1800
1000
3000
3040
3040
FFC0
ENDCHAR
STARTCHAR uni1EC1
ENCODING 7873
SWIDTH 518 0
DWIDTH 10 0
BBX 9 18 2 0
BITMAP
1800
0800
0400
0000
0700
0D00
1080
0000
0F00
3300
6300
4300
C600
F800
C000
C100
E300
7C00
ENDCHAR
STARTCHAR uni1EC4
ENCODING 7876
SWIDTH 569 0
DWIDTH 11 0
BBX 12 21 1 0
BITMAP
0640
0980
0000
01C0
0340
0420
0000
1FF0
0C10
0C30
0C00
0800
1840
1FC0
1880
1800
1000
3000
3040
3040
FFC0
ENDCHAR
STARTCHAR uni1EC5
ENCODING 7877
SWIDTH 518 0
DWIDTH 10 0
BBX 9 17 2 0
BITMAP
0C80
1300
0000
0700
0D00
1080
0000
0F00
3300
6300
4300
C600
F800
C000
C100
E300
7C00
ENDCHAR
STARTCHAR uni1EC6
ENCODING 7878
SWIDTH 569 0
DWIDTH 11 0
BBX 12 20 1 -2
BITMAP
0380
0680
0840
0000
1FF0
0C10
0C30
0C00
0800
1840
1FC0
1880
1800
1000
3000
3040
3040
FFC0
0000
0C00
ENDCHAR
STARTCHAR uni1EC7
ENCODING 7879
SWIDTH 518 0
DWIDTH 10 0
BBX 8 16 2 -2
BITMAP
0E
1A
21
00
0F
33
63
43
C6
F8
C0
C1
E3
7C
00
18
ENDCHAR
STARTCHAR uni1ECA
ENCODING 7882
SWIDTH 325 0
DWIDTH 6 0
BBX 8 16 1 -2
BITMAP
1F
0C
0C
0C
08
18
18
18
18
10
30
30
30
F8
00
30
ENDCHAR
STARTCHAR uni1ECB
ENCODING 7883
SWIDTH 289 0
DWIDTH 5 0
BBX 5 16 2 -2
BITMAP
18
00
00
00
F0
30
30
20
60
60
60
40
C0
F0
00
60
ENDCHAR
STARTCHAR uni1ECC
ENCODING 7884
SWIDTH 783 0
DWIDTH 15 0
BBX 13 16 2 -2
BITMAP
03E0
0C30
1818
3018
6018
6018
C018
C018
C018
C030
C030
6060
71C0
1F00
0000
0600
ENDCHAR
STARTCHAR uni1ECD
ENCODING 7885
SWIDTH 560 0
DWIDTH 11 0
BBX 9 12 2 -2
BITMAP
0F00
3180
6180
6180
C180
C180
C180
C300
E600
7800
0000
1800
ENDCHAR
STARTCHAR uni1ED0
ENCODING 7888
SWIDTH 783 0
DWIDTH 15 0
BBX 13 22 2 0
BITMAP
00E0
0180
0300
0000
01C0
0340
0420
0000
03E0
0C30
1818
3018
6018
6018
C018
C018
C018
C030
C030
6060
71C0
1F00
ENDCHAR
STARTCHAR uni1ED1
ENCODING 7889
SWIDTH 560 0
DWIDTH 11 0
BBX 9 18 2 0
BITMAP
0380
0600
0C00
0000
0700
0D00
1080
0000
0F00
3180
6180
6180
C180
C180
C180
C300
E600
7800
ENDCHAR
STARTCHAR uni1ED2
ENCODING 7890
SWIDTH 783 0
DWIDTH 15 0
BBX 13 22 2 0
BITMAP
0300
0100
0080
0000
01C0
0340
0420
0000
03E0
0C30
1818
3018
6018
6018
C018
C018
C018
C030
C030
6060
71C0
1F00
ENDCHAR
STARTCHAR uni1ED3
ENCODING 7891
SWIDTH 560 0
DWIDTH 11 0
BBX 9 18 2 0
BITMAP
1800
0800
0400
0000
0700
0D00
1080
0000
0F00
3180
6180
6180
C180
C180
C180
C300
E600
7800
ENDCHAR
STARTCHAR uni1ED6
ENCODING 7894
SWIDTH 783 0
DWIDTH 15 0
BBX 13 21 2 0
BITMAP
0320
04C0
0000
01C0
0340
0420
0000
03E0
0C30
1818
3018
6018
6018
C018
C018
C018
C030
C030
6060
71C0
1F00
ENDCHAR
STARTCHAR uni1ED7
ENCODING 7895
SWIDTH 560 0
DWIDTH 11 0
BBX 9 17 2 0
BITMAP
0C80
1300
0000
0700
0D00
1080
0000
0F00
3180
6180
6180
C180
C180
C180
C300
E600
7800
ENDCHAR
STARTCHAR uni1ED8
ENCODING 7896
SWIDTH 783 0
DWIDTH 15 0
BBX 13 20 2 -2
BITMAP
0380
0680
0840
0000
03E0
0C30
1818
3018
6018
6018
C018
C018
C018
C030
C030
6060
71C0
1F00
0000
0600
ENDCHAR
STARTCHAR uni1ED9
ENCODING 7897
SWIDTH 560 0
DWIDTH 11 0
BBX 9 16 2 -2
BITMAP
0E00
1A00
2100
0000
0F00
3180
6180
6180
C180
C180
C180
C300
E600
7800
0000
1800
ENDCHAR
STARTCHAR uni1EDA
ENCODING 7898
SWIDTH 783 0
DWIDTH 15 0
BBX 15 18 2 0
BITMAP
0038
0060
00C0
0000
03E6
0C36
181E
301C
601C
6018
C018
C018
C018
C030
C030
6060
71C0
1F00
ENDCHAR
STARTCHAR uni1EDB
ENCODING 7899
SWIDTH 560 0
DWIDTH 11 0
BBX 11 14 2 0
BITMAP
01C0
0300
0600
0000
0F60
31E0
61E0
61C0
C1C0
C180
C180
C300
E600
7800
ENDCHAR
STARTCHAR uni1EDC
ENCODING 7900
SWIDTH 783 0
DWIDTH 15 0
BBX 15 18 2 0
BITMAP
0180
0080
0040
0000
03E6
0C36
181E
301C
601C
6018
C018
C018
C018
C030
C030
6060
71C0
1F00
ENDCHAR
STARTCHAR uni1EDD
ENCODING 7901
SWIDTH 560 0
DWIDTH 11 0
BBX 11 14 2 0
BITMAP
0C00
0400
0200
0000
0F60
31E0
61E0
61C0
C1C0
C180
C180
C300
E600
7800
ENDCHAR
STARTCHAR uni1EE0
ENCODING 7904
SWIDTH 783 0
DWIDTH 15 0
BBX 15 17 2 0
BITMAP
0190
0260
0000
03E6
0C36
181E
301C
601C
6018
C018
C018
C018
C030
C030
6060
71C0
1F00
ENDCHAR
STARTCHAR uni1EE1
ENCODING 7905
SWIDTH 560 0
DWIDTH 11 0
BBX 11 13 2 0
BITMAP
0640
0980
0000
0F60
31E0
61E0
61C0
C1C0
C180
C180
C300
E600
7800
ENDCHAR
STARTCHAR uni1EE2
ENCODING 7906
SWIDTH 783 0
DWIDTH 15 0
BBX 15 16 2 -2
BITMAP
03E6
0C36
181E
301C
601C
6018
C018
C018
C018
C030
C030
6060
71C0
1F00
0000
0600
ENDCHAR
STARTCHAR uni1EE3
ENCODING 7907
SWIDTH 560 0
DWIDTH 11 0
BBX 11 12 2 -2
BITMAP
0F60
31E0
61E0
61C0
C1C0
C180
C180
C300
E600
7800
0000
1800
ENDCHAR
STARTCHAR uni1EE4
ENCODING 7908
SWIDTH 727 0
DWIDTH 14 0
BBX 13 16 3 -2
BITMAP
FC78
7020
6020
6020
6020
6040
6040
C040
C040
C040
C080
C080
6100
3E00
0000
0C00
ENDCHAR
STARTCHAR uni1EE5
ENCODING 7909
SWIDTH 630 0
DWIDTH 12 0
BBX 10 12 2 -2
BITMAP
F3C0
60C0
60C0
6080
6180
6180
4380
C580
C900
73C0
0000
0C00
ENDCHAR
STARTCHAR uni1EE8
ENCODING 7912
SWIDTH 727 0
DWIDTH 14 0
BBX 15 18 3 0
BITMAP
00E0
0180
0300
0000
FC7E
7026
6026
6024
602C
6040
6040
C040
C040
C040
C080
C080
6100
3E00
ENDCHAR
STARTCHAR uni1EE9
ENCODING 7913
SWIDTH 630 0
DWIDTH 12 0
BBX 12 14 2 0
BITMAP
01C0
0300
0600
0000
F3F0
60F0
60F0
60A0
61E0
6180
4380
C580
C900
73C0
ENDCHAR
STARTCHAR uni1EEA
ENCODING 7914
SWIDTH 727 0
DWIDTH 14 0
BBX 15 18 3 0
BITMAP
0600
0200
0100
0000
FC7E
7026
6026
6024
602C
6040
6040
C040
C040
C040
C080
C080
6100
3E00
ENDCHAR
STARTCHAR uni1EEB
ENCODING 7915
SWIDTH 630 0
DWIDTH 12 0
BBX 12 14 2 0
BITMAP
0C00
0400
0200
0000
F3F0
60F0
60F0
60A0
61E0
6180
4380
C580
C900
73C0
ENDCHAR
STARTCHAR uni1EEE
ENCODING 7918
SWIDTH 727 0
DWIDTH 14 0
BBX 15 17 3 0
BITMAP
0320
04C0
0000
FC7E
7026
6026
6024
602C
6040
6040
C040
C040
C040
C080
C080
6100
3E00
ENDCHAR
STARTCHAR uni1EEF
ENCODING 7919
SWIDTH 630 0
DWIDTH 12 0
BBX 12 13 2 0
BITMAP
0640
0980
0000
F3F0
60F0
60F0
60A0
61E0
6180
4380
C580
C900
73C0
ENDCHAR
STARTCHAR uni1EF0
ENCODING 7920
SWIDTH 727 0
DWIDTH 14 0
BBX 15 16 3 -2
BITMAP
FC7E
7026
6026
6024
602C
6040
6040
C040
C040
C040
C080
C080
6100
3E00
0000
0C00
ENDCHAR
STARTCHAR uni1EF1
ENCODING 7921
SWIDTH 630 0
DWIDTH 12 0
BBX 12 12 2 -2
BITMAP
F3F0
60F0
60F0
60A0
61E0
6180
4380
C580
C900
73C0
0000
0C00
ENDCHAR
STARTCHAR Ygrave
ENCODING 7922
SWIDTH 663 0
DWIDTH 13 0
BBX 13 18 2 0
BITMAP
0C00
0400
0200
0000
F878
7030
3060
30C0
1880
1900
1E00
0C00
0C00
0C00
1800
1800
1800
7E00
ENDCHAR
STARTCHAR ygrave
ENCODING 7923
SWIDTH 558 0
DWIDTH 11 0
BBX 12 18 0 -4
BITMAP
0C00
0400
0200
0000
7870
1830
1820
0820
0C40
0C80
0D00
0D00
0E00
0400
0800
1000
3000
E000
ENDCHAR
STARTCHAR uni1EF4
ENCODING 7924
SWIDTH 663 0
DWIDTH 13 0
BBX 13 16 2 -2
BITMAP
F878
7030
3060
30C0
1880
1900
1E00
0C00
0C00
0C00
1800
1800
1800
7E00
0000
0C00
ENDCHAR
STARTCHAR uni1EF5
ENCODING 7925
SWIDTH 558 0
DWIDTH 11 0
BBX 12 16 0 -6
BITMAP
7870
1830
1820
0820
0C40
0C80
0D00
0D00
0E00
0400
0800
1000
3000
E000
0000
1800
ENDCHAR
STARTCHAR uni1EF8
ENCODING 7928
SWIDTH 663 0
DWIDTH 13 0
BBX 13 17 2 0
BITMAP
0C80
1300
0000
F878
7030
3060
30C0
1880
1900
1E00
0C00
0C00
0C00
1800
1800
1800
7E00
ENDCHAR
STARTCHAR uni1EF9
ENCODING 7929
SWIDTH 558 0
DWIDTH 11 0
BBX 12 17 0 -4
BITMAP
0640
0980
0000
7870
1830
1820
0820
0C40
0C80
0D00
0D00
0E00
0400
0800
1000
3000
E000
ENDCHAR
STARTCHAR uni2000
ENCODING 8192
SWIDTH 500 0
DWIDTH 13 0
BBX 1 1 0 0
BITMAP
00
ENDCHAR
STARTCHAR uni2001
ENCODING 8193
SWIDTH 1000 0
DWIDTH 26 0
BBX 1 1 0 0
BITMAP
00
ENDCHAR
STARTCHAR uni2002
ENCODING 8194
SWIDTH 500 0
DWIDTH 13 0
BBX 1 1 0 0
BITMAP
00
ENDCHAR
STARTCHAR uni2003
ENCODING 8195
SWIDTH 1000 0
DWIDTH 26 0
BBX 1 1 0 0
BITMAP
00
ENDCHAR
STARTCHAR uni2004
ENCODING 8196
SWIDTH 333 0
DWIDTH 9 0
BBX 1 1 0 0
BITMAP
00
ENDCHAR
STARTCHAR uni2005
ENCODING 8197
SWIDTH 250 0
DWIDTH 7 0
BBX 1 1 0 0
BITMAP
00
ENDCHAR
STARTCHAR uni2006
ENCODING 8198
SWIDTH 167 0
DWIDTH 4 0
BBX 1 1 0 0
BITMAP
00
ENDCHAR
STARTCHAR uni2007
ENCODING 8199
SWIDTH 608 0
DWIDTH 12 0
BBX 1 1 0 0
BITMAP
00
ENDCHAR
STARTCHAR uni2008
ENCODING 8200
SWIDTH 265 0
DWIDTH 5 0
BBX 1 1 0 0
BITMAP
00
ENDCHAR
STARTCHAR uni2009
ENCODING 8201
SWIDTH 200 0
DWIDTH 5 0
BBX 1 1 0 0
BITMAP
00
ENDCHAR
STARTCHAR uni200A
ENCODING 8202
SWIDTH 100 0
DWIDTH 3 0
BBX 1 1 0 0
BITMAP
00
ENDCHAR
STARTCHAR uni200B
ENCODING 8203
SWIDTH 0 0
DWIDTH 0 0
BBX 1 1 0 0
BITMAP
00
ENDCHAR
STARTCHAR uni2010
ENCODING 8208
SWIDTH 313 0
DWIDTH 6 0
BBX 5 1 2 6
BITMAP
F8
ENDCHAR
STARTCHAR uni2011
ENCODING 8209
SWIDTH 313 0
DWIDTH 6 0
BBX 5 1 2 6
BITMAP
F8
ENDCHAR
STARTCHAR figuredash
ENCODING 8210
SWIDTH 500 0
DWIDTH 9 0
BBX 8 1 2 6
BITMAP
FF
ENDCHAR
STARTCHAR endash
ENCODING 8211
SWIDTH 500 0
DWIDTH 9 0
BBX 8 1 2 6
BITMAP
FF
ENDCHAR
STARTCHAR emdash
ENCODING 8212
SWIDTH 1000 0
DWIDTH 19 0
BBX 17 1 2 5
BITMAP
FFFF80
ENDCHAR
STARTCHAR afii00208
ENCODING 8213
SWIDTH 1000 0
DWIDTH 19 0
BBX 17 1 2 5
BITMAP
FFFF80
ENDCHAR
STARTCHAR quoteleft
ENCODING 8216
SWIDTH 265 0
DWIDTH 5 0
BBX 3 5 3 9
BITMAP
60
40
C0
E0
C0
ENDCHAR
STARTCHAR quoteright
ENCODING 8217
SWIDTH 265 0
DWIDTH 5 0
BBX 3 5 3 9
BITMAP
60
60
60
40
C0
ENDCHAR
STARTCHAR quotesinglbase
ENCODING 8218
SWIDTH 265 0
DWIDTH 5 0
BBX 3 7 1 -4
BITMAP
60
60
60
60
40
40
80
ENDCHAR
STARTCHAR quotereversed
ENCODING 8219
SWIDTH 265 0
DWIDTH 5 0
BBX 3 5 3 9
BITMAP
C0
C0
C0
40
60
ENDCHAR
STARTCHAR quotedblleft
ENCODING 8220
SWIDTH 457 0
DWIDTH 9 0
BBX 7 5 3 9
BITMAP
26
4C
4C
EC
CC
ENDCHAR
STARTCHAR quotedblright
ENCODING 8221
SWIDTH 457 0
DWIDTH 9 0
BBX 7 5 3 9
BITMAP
66
6E
64
44
C8
ENDCHAR
STARTCHAR quotedblbase
ENCODING 8222
SWIDTH 457 0
DWIDTH 9 0
BBX 7 7 1 -4
BITMAP
66
6E
6E
66
64
44
C8
ENDCHAR
STARTCHAR uni201F
ENCODING 8223
SWIDTH 457 0
DWIDTH 9 0
BBX 7 5 3 9
BITMAP
CC
EC
4C
44
26
ENDCHAR
STARTCHAR dagger
ENCODING 8224
SWIDTH 608 0
DWIDTH 12 0
BBX 9 18 3 -4
BITMAP
0600
0400
0400
0C00
0800
0800
FF80
0800
0800
1000
1000
1000
1000
3000
3000
2000
2000
6000
ENDCHAR
STARTCHAR daggerdbl
ENCODING 8225
SWIDTH 608 0
DWIDTH 12 0
BBX 10 18 2 -4
BITMAP
0200
0600
0600
0600
0400
0400
7FC0
0400
0800
0800
0800
0800
FF80
0800
1800
1000
1000
3000
ENDCHAR
STARTCHAR bullet
ENCODING 8226
SWIDTH 608 0
DWIDTH 12 0
BBX 6 6 4 3
BITMAP
78
FC
FC
FC
FC
78
ENDCHAR
STARTCHAR ellipsis
ENCODING 8230
SWIDTH 1000 0
DWIDTH 19 0
BBX 15 1 2 0
BITMAP
C386
ENDCHAR
STARTCHAR perthousand
ENCODING 8240
SWIDTH 1065 0
DWIDTH 20 0
BBX 19 14 2 0
BITMAP
1C0800
241000
662000
444000
448000
6D8000
3B0000
02E1C0
059360
091620
111660
211660
412640
C1C380
ENDCHAR
STARTCHAR guilsinglleft
ENCODING 8249
SWIDTH 330 0
DWIDTH 6 0
BBX 5 8 2 1
BITMAP
08
10
20
40
C0
60
20
20
ENDCHAR
STARTCHAR guilsinglright
ENCODING 8250
SWIDTH 330 0
DWIDTH 6 0
BBX 5 8 2 1
BITMAP
20
20
30
18
10
20
40
80
ENDCHAR
STARTCHAR fraction
ENCODING 8260
SWIDTH 36 0
DWIDTH 2 0
BBX 14 14 -4 0
BITMAP
000C
0018
0030
0060
0040
0080
0100
0200
0400
0800
1800
3000
6000
C000
ENDCHAR
STARTCHAR oneinferior
ENCODING 8321
SWIDTH 365 0
DWIDTH 7 0
BBX 4 9 -10 -5
BITMAP
70
10
10
20
20
20
20
60
F0
ENDCHAR
STARTCHAR twoinferior
ENCODING 8322
SWIDTH 365 0
DWIDTH 7 0
BBX 6 9 -10 -5
BITMAP
38
4C
04
04
18
20
40
40
F8
ENDCHAR
STARTCHAR threeinferior
ENCODING 8323
SWIDTH 365 0
DWIDTH 7 0
BBX 6 9 -10 -5
BITMAP
38
6C
04
08
30
18
08
98
F0
ENDCHAR
STARTCHAR uni20A5
ENCODING 8357
SWIDTH 944 0
DWIDTH 18 0
BBX 16 18 2 -4
BITMAP
0004
0008
0010
0010
F3AE
34F3
68E3
71E2
71C6
6186
6186
C386
C706
C70F
0800
0800
1000
2000
ENDCHAR
STARTCHAR uni20A6
ENCODING 8358
SWIDTH 762 0
DWIDTH 14 0
BBX 16 14 0 0
BITMAP
1C0F
0C02
0E04
0E04
1FFC
1384
1184
10C8
3FF8
1068
2068
2038
2030
F010
ENDCHAR
STARTCHAR uni20A9
ENCODING 8361
SWIDTH 878 0
DWIDTH 17 0
BBX 18 14 2 0
BITMAP
F843C0
60C180
60C100
61C200
6FFE00
22C400
22C400
244800
3FFC00
387000
387000
306000
306000
204000
ENDCHAR
STARTCHAR Euro
ENCODING 8364
SWIDTH 714 0
DWIDTH 14 0
BBX 16 14 -1 0
BITMAP
007F
0183
0303
0603
7FF0
0C00
1800
1800
FFE0
1800
1800
0C00
0E0C
03F0
ENDCHAR
STARTCHAR uni20AD
ENCODING 8365
SWIDTH 698 0
DWIDTH 13 0
BBX 14 14 1 0
BITMAP
1F3C
0C18
0C20
0C40
0980
1B00
FFFC
1F00
1B00
3180
31C0
30C0
3060
F9F0
ENDCHAR
STARTCHAR uni2103
ENCODING 8451
SWIDTH 977 0
DWIDTH 19 0
BBX 17 14 3 0
BITMAP
603F80
A0C180
A18180
630180
060000
060000
0C0000
0C0000
0C0000
0C0000
0C0000
060000
070600
01F800
ENDCHAR
STARTCHAR uni2109
ENCODING 8457
SWIDTH 814 0
DWIDTH 15 0
BBX 15 14 3 0
BITMAP
63FE
A182
A186
6180
0100
0308
03F0
0310
0300
0200
0600
0600
0600
1F80
ENDCHAR
STARTCHAR trademark
ENCODING 8482
SWIDTH 904 0
DWIDTH 17 0
BBX 17 8 2 6
BITMAP
FFE380
106700
10AA00
30AA00
20B600
20B600
20A600
F30700
ENDCHAR
STARTCHAR uni212A
ENCODING 8490
SWIDTH 698 0
DWIDTH 13 0
BBX 14 14 1 0
BITMAP
1F3C
0C18
0C20
0C40
0980
1B00
1E00
1F00
1B00
3180
31C0
30C0
3060
F9F0
ENDCHAR
STARTCHAR uni212B
ENCODING 8491
SWIDTH 747 0
DWIDTH 14 0
BBX 14 18 0 0
BITMAP
0070
0050
0070
0000
0040
00C0
00E0
0160
0160
0260
0460
0430
0830
1FF0
2030
2030
6038
F07C
ENDCHAR
STARTCHAR uni2132
ENCODING 8498
SWIDTH 551 0
DWIDTH 10 0
BBX 12 14 1 0
BITMAP
03F0
00C0
00C0
00C0
0080
0180
1180
1F80
2180
0100
0300
C300
8300
FF80
ENDCHAR
STARTCHAR minus
ENCODING 8722
SWIDTH 608 0
DWIDTH 12 0
BBX 11 1 1 5
BITMAP
FFE0
ENDCHAR
STARTCHAR fraction
ENCODING 8725
SWIDTH 36 0
DWIDTH 2 0
BBX 14 14 -4 0
BITMAP
000C
0018
0030
0060
0040
0080
0100
0200
0400
0800
1800
3000
6000
C000
ENDCHAR
STARTCHAR periodcentered
ENCODING 8729
SWIDTH 608 0
DWIDTH 12 0
BBX 2 1 6 6
BITMAP
C0
ENDCHAR
STARTCHAR uni2236
ENCODING 8758
SWIDTH 265 0
DWIDTH 5 0
BBX 4 10 2 0
BITMAP
30
70
00
00
00
00
00
00
E0
C0
ENDCHAR
STARTCHAR uni2259
ENCODING 8793
SWIDTH 608 0
DWIDTH 12 0
BBX 12 9 1 3
BITMAP
0700
0D00
1080
0000
7FF0
0000
0000
0000
FFE0
ENDCHAR
STARTCHAR uni225A
ENCODING 8794
SWIDTH 608 0
DWIDTH 12 0
BBX 12 9 1 3
BITMAP
1080
0B00
0E00
0000
7FF0
0000
0000
0000
FFE0
ENDCHAR
STARTCHAR notequal
ENCODING 8800
SWIDTH 608 0
DWIDTH 12 0
BBX 12 18 1 -3
BITMAP
0010
0020
0040
0040
0080
0080
0100
7FF0
0200
0400
0400
FFE0
1000
1000
2000
2000
4000
8000
ENDCHAR
STARTCHAR equivalence
ENCODING 8801
SWIDTH 608 0
DWIDTH 12 0
BBX 12 5 0 3
BITMAP
FFF0
0000
FFF0
0000
FFF0
ENDCHAR
STARTCHAR uni2262
ENCODING 8802
SWIDTH 608 0
DWIDTH 12 0
BBX 12 18 0 -3
BITMAP
0010
0020
0040
0040
0080
0080
0100
FFF0
0200
FFF0
0400
FFF0
1000
1000
2000
2000
4000
8000
ENDCHAR
STARTCHAR lessequal
ENCODING 8804
SWIDTH 608 0
DWIDTH 12 0
BBX 12 14 1 -2
BITMAP
0010
0060
0180
0600
1800
E000
6000
1800
0C00
0300
01C0
0040
0000
FFF0
ENDCHAR
STARTCHAR greaterequal
ENCODING 8805
SWIDTH 608 0
DWIDTH 12 0
BBX 12 14 0 -2
BITMAP
2000
3800
0C00
0300
0180
0060
0070
0180
0600
1800
6000
8000
0000
FFF0
ENDCHAR
STARTCHAR uni226E
ENCODING 8814
SWIDTH 608 0
DWIDTH 12 0
BBX 12 18 1 -3
BITMAP
0010
0020
0040
0050
00E0
0180
0700
1A00
E200
6400
1C00
0C00
1300
11C0
2040
2000
4000
8000
ENDCHAR
STARTCHAR uni226F
ENCODING 8815
SWIDTH 608 0
DWIDTH 12 0
BBX 12 18 0 -3
BITMAP
0010
0020
0040
2040
3880
0C80
0300
0380
0260
0470
0580
0E00
1800
7000
A000
2000
4000
8000
ENDCHAR
STARTCHAR uni2270
ENCODING 8816
SWIDTH 608 0
DWIDTH 12 0
BBX 12 18 1 -4
BITMAP
0010
0020
0050
0060
0180
0680
1900
E200
6200
1C00
0C00
0B00
11C0
1040
2000
FFF0
4000
8000
ENDCHAR
STARTCHAR uni2271
ENCODING 8817
SWIDTH 608 0
DWIDTH 12 0
BBX 12 18 0 -4
BITMAP
0010
0020
2040
3840
0C80
0380
0180
0260
0270
0580
0600
1800
7000
9000
2000
FFF0
4000
8000
ENDCHAR
STARTCHAR fi
ENCODING -1
SWIDTH 633 0
DWIDTH 12 0
BBX 12 19 1 -4
BITMAP
0780
0CB0
0880
1800
1800
7FE0
1060
3060
3060
3040
30C0
20C0
60C0
60C0
61E0
6000
4000
C000
C000
ENDCHAR
STARTCHAR fl
ENCODING -1
SWIDTH 645 0
DWIDTH 12 0
BBX 12 19 1 -4
BITMAP
03F0
0470
0830
1820
1860
7F60
1060
3060
3040
30C0
30C0
20C0
60C0
6180
61E0
6000
4000
C000
C000
ENDCHAR
ENDFONT
